<?xml version="1.0" encoding="utf-8"?>
<svg viewBox="101.38031005859375 467.1434326171875 1197.239501953125 472.8245849609375" width="1197.239501953125" height="472.8245849609375" xmlns="http://www.w3.org/2000/svg"><path d="M1400,712.9v-59.8c-2.6-0.5-5.6-1.3-6.7-3.2c-1.4-2.2-7.7-6.8-7.7-6.8c1.4-9.7-10.1-54.8-10.1-54.8c0-2-1.6-3-1.4-6.9&#10;&#9;&#9;&#9;c0.2-3.8-2.6-9.4-2.6-9.4c0-4.1-1.6-6.4-1.6-6.4c-0.7-2,2.2-15,2.2-15c2.6-3.6,4.2-15.8,4.2-15.8c-1.6-4.8-5.7,7.4-5.7,7.4&#10;&#9;&#9;&#9;c1-5,3.9-17.3,3.9-17.3c-2.6-6.7-6.3,5.8-6.3,5.8c-1,3-1.7,5.6-1.7,5.6c-0.2,1.4-2.5,8.3-2.5,8.3c-2,4.2-1-3-1-3&#10;&#9;&#9;&#9;c0-3.2,3.2-10.1,2.1-15.2c-1.5-6.9-4.9,3-4.9,3c-1.5,3.6-3.1,16-3.1,16c-1.6,2.8-2.2-0.2-2.2-0.2c0.2-2.8-1.4-10.5-1.4-10.5&#10;&#9;&#9;&#9;c-3.2-6.2-4,1.2-4,1.2l0.6,14.5c-1,7.4,1.2,17.7,1.2,17.7c-1.2,0.8-2.3,6.4-3.1,12.4c1.3,2.8,1.9,5.9,2.2,9.3&#10;&#9;&#9;&#9;c0.3,3.8-0.2,7.6-0.3,11.3c0.1,0.8,0.2,1.5,0.3,2.3c0.1,1.1,0.2,2.1,0.3,3.2c1.3,3.2,2.6,6.4,3.8,9.6c2.4,6.3,3.4,12.4,4.2,19.1&#10;&#9;&#9;&#9;c0.1,0.5,0.1,1.1,0.1,1.6c0.6,1.4,1.2,2.9,1.9,4.4c3,7,3.9,15.1,5.6,22.5c0.2,0.9,0.3,1.9,0.4,2.8c-7.5-1.9-11,6.4-15.7,10&#10;&#9;&#9;&#9;c0.6,3.1,1.9,5.3-0.6,7.3c1.2,1.3,2.5,2.6,3,4c-1.6,0.1-3,0.1-4.9-0.2c-0.2-0.8,0.7-1.1,0-1.3c-3.3-1.4-7-4.7-10.6-4.4&#10;&#9;&#9;&#9;c4.7,2.7,8.5,6.2,14.1,8c1,3.3,0.9,6.6,0.4,9.9c-2.2,2.8-6.3,5-8.8,6.7c-3.6-0.7-2.7-6-5.6-7.3c-3.7,2.1-4.1,6.5-9.6,5.6&#10;&#9;&#9;&#9;c-1.4,2-1.7,5-3.6,6.4c-1-1.6-2.7-2.5-2.4-5.4c3.5-0.8-0.6-6.7,2.7-8c-2.2,0.5-2.3-1.2-2.2-3.1c-0.2-0.1-0.4-0.1-0.5-0.2&#10;&#9;&#9;&#9;c0.1-0.6,0.2-1.2,0.2-1.8c-0.1-10.8-0.2-19.8,0-21.1c0.3-3.1,0.6-6.2,0.6-6.9c0,0,0,0,0,0c0.1,0,0.1,0,0.2,0&#10;&#9;&#9;&#9;c-0.1-0.1-0.1-0.1-0.2-0.2c0-1.7-0.1-5.8-0.3-8.5c-0.2-2.8,1.1-4.7,1.1-6.6c0-1.9,1.4-3.5,2.6-6.6c1.2-3.1,1.8-5.4,0.9-7&#10;&#9;&#9;&#9;c-0.9-1.6-1.6-3.3-0.7-5.1c0.6-1.2,0.3-4-0.2-6.2c1.6-1.6,1.2-4.6-0.6-5.9c0.4-1.3,0.8-2.9,1-4.8c0.4-4.2-4.9-6.1-4.9-6.1&#10;&#9;&#9;&#9;s-0.9-1.2-0.5-1.7c0.3-0.5,0.5-2.4,0.4-4.7c-0.2-2.3,0.9-3.7,0.9-4.5c0-0.9,1.4-9.4,1.8-12c0.4-2.6,0.4-8-0.1-10.1&#10;&#9;&#9;&#9;c-0.5-2.1,0.6-8.9,0.8-12.5c0.2-3.7-0.8-9.4-0.8-9.4c0.7-4.7-3-31.9-3-31.9l0.7-1.4c0,0,0.9-1.4,1-1.9c0.2-0.5,0.5-3.3,0.5-3.3&#10;&#9;&#9;&#9;s-0.7-1.9-0.7-2.6c0-0.7,0.7-2.1,0.7-3c0-0.9,1.6-3.7,1.6-4.7c0-1.1,1.2-4,1.4-6.1c0.2-2.1,0.9-3.5,1.8-4c0.9-0.5,0.7-1.9,0.9-2.6&#10;&#9;&#9;&#9;c0.2-0.7,1.1-2.1,1.9-3c0.9-0.9,1.1-1.2,1.9-2.6c0.9-1.4,0.7-2.1,1.9-3.1c1.2-1,1.9-3,1.9-3l1.2-3.5c0,0-1-1.8-1.7-2.1&#10;&#9;&#9;&#9;c-0.7-0.4-3.3,3.1-3.3,3.1s-2.7,3.8-4.6,6.6c-1.9,2.8-2.4,0.5-2.4,0.5s0.5-1.7,0.7-2.3c0.2-0.5,1.2-2.6,1.2-3.1&#10;&#9;&#9;&#9;c0-0.5,2.3-4.5,2.3-4.5l1.1-4c0,0,1.1-1.6,1.8-4.7c0.7-3.1-3.8-2.5-3.8-2.5c-0.7,3.7-7.2,18.8-8.3,18.8c-1,0-0.3-1.4-0.3-1.4&#10;&#9;&#9;&#9;l0.2-2.6l1.7-3.7c0,0,1.1-2.8,1.2-3.5c0.2-0.7,1.1-4.5,1.1-4.5l2.8-5.7c0.7-3-1-3.3-2.6-4c-1.6-0.7-2.4,1.7-2.4,1.7l-2.8,5.6&#10;&#9;&#9;&#9;l-1.6,6.1l-2.1,6.3c0,0-0.4,3.7-1.4,3.6c-1,0-2.1-0.9-2.1-0.9l-0.8-2.1c0,0,0.2-4.5,0.7-5c0.5-0.5-0.7-3.1-0.7-4.2&#10;&#9;&#9;&#9;c0-1,0.7-7.8,0.7-8.4c0-0.5-0.7-1.6-2.8-1.9c-2.1-0.4-2.1,8.7-2.2,10.1c-0.1,1.4,0.2,11-0.1,12.2c-0.3,1.2,0.1,6.3-1.7,7.7&#10;&#9;&#9;&#9;c-1.7,1.4-3.5,5-4.2,5c-0.7,0,0,2.8-1-7.3c-1-10.1-6.4-6.6-5.6-6.1c0.9,0.5,1.5,9.1,2,11.5c0.5,2.4-1.9,3.9-1.8,6.8&#10;&#9;&#9;&#9;c0.2,3,10.6,16.5,10.6,16.5s0,0.1-1.6,2.7c-1.6,2.6,2.8,5.7,1.9,5.9c-0.9,0.2,0.3,15.5,0.9,25.5c0.7,9.9-3.4,23.2-3.4,31.7&#10;&#9;&#9;&#9;c0,8.5,1.3,26.7,1.3,26.7h-1.3c0,0-0.4,2.7-1.6,2.1c-1.2-0.5-4.4-1.7-3.3,1.9c1,3.7-0.9,7.1-3.5,8c-2.6,0.9,2.1,6.8,1.9,8&#10;&#9;&#9;&#9;c-0.2,1.2-1.2,2.4-1.2,2.4s3.3-2.8-1,0.9c-0.2,0.1-0.3,0.3-0.5,0.5c-1.1-2-3.6-3.1-7.1-0.9c-1.7,4.5,0.4,7.9,3.6,7.9&#10;&#9;&#9;&#9;c1.2,0,2.1-0.4,2.8-1c0.8,2,2.1,3.6,2.1,3.6c-3.1,2.4-0.7,7.1-4.6,7.1c-3.8,0-1.8,4-0.1,6.3c1.7,2.3,0,11.5,0,11.5&#10;&#9;&#9;&#9;c0,3.3-8.8,4.4-8.8,4.4s-4.7,1.4-6.7,1.6c-0.1-3.2-0.2-6.4,0.4-9.7c-0.8,0.1-1-0.5-1.8-0.4c0.9,4.5-0.9,7.5-3.8,9&#10;&#9;&#9;&#9;c-2.8-1-5.9-2.3-6.5-3.3c-0.9-1.6-1.6-2.5-1.6-2.5s-0.3-4.7,1.5-5.5c1.8-0.7,3.1-6.4,3.1-6.4s0.5-4.3,0-6.2&#10;&#9;&#9;&#9;c-0.4-1.9-2.4,0.7-2.4,0.7s0.2-3.9,0-8.8c-0.1-4.9-5.7-15-5.7-15c-9-22.9-27-14.8-27-14.8c-30.1-3.1-20.4,43-20.4,43&#10;&#9;&#9;&#9;c-1.5-1.9-1.6,0.3-1.6,0.3s-0.3,1.9,1,6.5c1.3,4.6,7.3,6.9,7.3,6.9s1.3,1.5-0.9,6.8c-2.2,5.3-11,4-11.7,3.2c-0.7-0.7,0-0.9,0-2.8&#10;&#9;&#9;&#9;c0-1.9-1.8-4-1.9-5.4c-0.1-1.3-2.1-2.7-1.8-4c0.3-1.3-1.2-2.4-1.2-4.6c0-2.2-3.4-5.4-3.4-7.7c0-2.4-0.6-2.2-1.3-3.3&#10;&#9;&#9;&#9;c-0.7-1-0.9-1.6-0.9-4c0-2.4-0.1-3.6-1-5.1c-0.9-1.5-1.8-2.1-2.7-3.6c-0.9-1.5,0-3.6,0.8-4.6c0.8-1,1.5-4.6,0.6-6.8&#10;&#9;&#9;&#9;c-0.9-2.2-7.1-4.5-7.4-8.9c-0.3-4.5,1-24.4,1.8-27.9c0.8-3.6-0.1-13.7,0.1-17.1c0.2-3.4,0.8-12.3,0.7-13.7&#10;&#9;&#9;&#9;c-0.1-1.3,0.5-10.5,0.5-10.5s0.9-6.8,1.1-8.3c0.1-1.5,1.4-3,1.4-3s0.3-3,0.2-4.6c-0.1-1.6,2.3-3.7,2.3-3.7s3-4.1,4.1-4.4&#10;&#9;&#9;&#9;c1.2-0.3,4.8-4.9,5.3-5.9c0.4-1,0.5-4,0.5-4s0-4.8,0-6.4c0-1.6-1.1-3-2.6-4.1c-1.5-1.1-4.8-4.4-4.4-4.9c0.4-0.5-0.2-4.2,0-4.6&#10;&#9;&#9;&#9;c0.2-0.4,0-5.1,0-5.1l-0.8-9.4c-0.7-3.6-3.6-1.9-3.6-1.9c-1.6-0.5-0.8,5.8-0.8,5.8l0.7,9.1c0,0-0.5,6.8-1.4,6.5&#10;&#9;&#9;&#9;c-0.9-0.3-1.2-5.2-1.2-5.2c-2.2-3.7-5.7,1.9-5.7,1.9c-2.5-2.1-4.5,2.7-4.5,2.7c-0.3-4.5-4.6-2.1-4.6-2.1&#10;&#9;&#9;&#9;c-4.2,5.9-0.2,33.3-0.2,33.3s0.4,4.8,0.4,6.2c0,1.4-2.2,17.4-3.9,20.7c-1.8,3.3-5,31.5-5,31.5c2.2,3.5-0.4,11-0.4,11&#10;&#9;&#9;&#9;c-2.3,2.1-0.1,23-0.1,23s-3.3,5.9-5.1,5.9c-1.8,0,2.1,7.2,0.9,6.8c-1.2-0.4-1.3,9.4-0.1,13.1c1.2,3.7,4.5,4.7,4.2,5.6&#10;&#9;&#9;&#9;c-0.3,0.9-1.4,2.6-3,8c-1.6,5.4,10.9,11.4,9.7,14c-0.8,1.6-0.6,6.3-0.4,9.7c0,0.6,0.2,5.2,0.3,11.5c0.1,2.5,2.1,8.1,4,13.5&#10;&#9;&#9;&#9;c-0.4-0.4-0.8-0.8-1.4-1c0,0.6,0,1.8,0.2,3.1c-3.1,0.9-6.2,0.2-9.4-0.8c-3.2-3.8-2.5-11.4-3.2-16.3c0-0.7,1.3,0.5,1.8-0.4&#10;&#9;&#9;&#9;c0.4-0.8,0.6-1.7,0.7-2.8c0.5-0.6,2-0.1,2.5-0.7c0.8-3.7,0.6-7.5,2.5-11c-1.6-0.3-2.4-1.4-3.2-2.5c-0.1-1.1,0.9-1.2,0.7-2.5&#10;&#9;&#9;&#9;c-2.3-0.9-4.7-3.1-6.7-5.3c-2.3,0.9-4.4,0.1-5.3-1.4c-2.9,1.7-6.6,2.6-9.9,3.9c-1.4-0.6-0.2-3.8-2.1-3.9c-1.1,2.8,0.9,4,1.8,6.4&#10;&#9;&#9;&#9;c-0.8,2.2-3.7,2.2-2.8,6c-0.3,0.6-1.2,0.6-1.8,1.1c0.5,1.2,0.4,2.2,0.4,3c-0.5-0.2-1.1-0.3-1.7-0.4c-0.2,2.5,0.4,4.1,2.2,4.7&#10;&#9;&#9;&#9;c-0.1,0.2-0.2,0.4-0.1,0.8c3.3,0.3,4.9,2.4,6,5c2.1-0.3,3.8,0.9,5,2.5c1.1,0.1,1.2-0.9,2.5-0.7c0.5,0.1,0.6,0.6,1.1,0.7&#10;&#9;&#9;&#9;c-1.1,6.1,3.7,8.3,2.5,13.8c-1.1-0.6-0.5-2.8-2.5-2.5c-0.5,2.7,1.3,3.2,1.4,5.3c-3.1,1.6-5.3,4.1-7.4,6.7c-3-3.9-4-9.9-6.4-14.5&#10;&#9;&#9;&#9;c1.8,5.4,3.7,12.5,1.5,17c-0.2-0.1-0.3-0.2-0.5-0.2c0.6-2.4,1.1-4.8,1.3-7.2c-1.6,1.4-2.9,3.6-4.1,6c-0.5-0.1-1.1-0.1-1.3-0.5&#10;&#9;&#9;&#9;c-0.1-1.6-1-3-2.1-4.4c0.3-0.6,0.3-1.5-0.4-2.8c0,0,0,0,0.1,0c-0.7,0.1-1.5,0.2-2.2,0.2c-2.9-3.1-5.7-6.3-2.9-11.5&#10;&#9;&#9;&#9;c1.4-0.4,4.6,1,4-1.3c-3.6,1.3-6.2-2-7.1-4.9c2.3-0.5,1.2-3.2,3.5-2.7c-0.5-1.1-2.8-3.3-0.9-4c-0.1,1.1,0.2,1.8,0.9,2.2&#10;&#9;&#9;&#9;c-0.1-2.4-1.8-5.2,0.4-6.2c-1.9-2.6,0.3-6.7-0.4-9.3c0,0.4,0.8,0.6,0.9,0v-1.3c-0.8,0.2-1.1,1-2.2,0.9c-0.2-3.3-0.1-6.2,0.1-8.9&#10;&#9;&#9;&#9;c-2-0.7-4-1.7-6-3c-0.7,0.3-1.4,0.5-2.1,0.6c0.5,2.9,0.1,8.4-0.9,12.1c4.6,1.5-0.1,6.7,1.3,8.4c-1.7-0.1-3.5,1.1-4.9,0&#10;&#9;&#9;&#9;c-0.6,1.2-1.8,1.9-2.6,3c-0.1-0.2-0.1-0.4-0.2-0.6c0,0,0-13.9-1.8-18.4c-1.9-4.5-0.2-20.1-1.8-20.1c-1.6,0,4.7-17.8,5.7-20.8&#10;&#9;&#9;&#9;c1-3,7.4-11.1,9.1-17c1.7-5.9,4.2-12.3,3.2-13.7c-1-1.4,2.6-11.3,3.1-12.8c0.4-1.5,5-10.8,1.3-13.2c-3.8-2.4-0.1-12.9,0.7-14.9&#10;&#9;&#9;&#9;c0.7-2,4.8-11.2,1.5-15.8c0,0,3.9-11.1-1.9-12.8c0,0,3.4-14.6,2.7-16.4c-0.7-1.8,1.5-10.7,0.6-14c-1-3.3,0.9-12.5,2-14.7&#10;&#9;&#9;&#9;c1.1-2.2,1.4-8.7,0.3-9.3c-1.1-0.6-1-8.1-4-11.6c0,0-2.3-3.8-1.6-6.5c0.8-2.7,0.8-4.7,0.8-4.7s3.6-7.2,0.5-6.4&#10;&#9;&#9;&#9;c-3.1,0.8-3.1,3.4-3.1,3.4l-1.6,5.3l-0.8,4.4c0,0-3.4,0.1-3.7-3.4c-0.3-3.5-1-4.8-1-4.8l2-6.9c0,0,2.8-5.2,0.7-5.9&#10;&#9;&#9;&#9;c-2.1-0.7-4.3,5.2-4.3,5.2l-2.3,6.6c0,0-0.8,2.6-0.2,3.4c0.6,0.9-3.4-1.8-1.9-6.1c0,0,0.2-5.7,0.5-6.8c0.3-1.1,0.7-4.6-1.1-5&#10;&#9;&#9;&#9;c-1.8-0.4-3.1,1.3-3.2,4.1c-0.1,2.8-1.3,8.3-1.3,8.3l-0.7,2.9c0,0-1.5-3.3-1.2-4.4c0.3-1-0.2-6.7-0.9-6.9c0,0-0.9-3.3-3.5-1.6&#10;&#9;&#9;&#9;c0,0-1,2.2-0.7,4.8c0.2,2.6,0.2,4.4,0.2,4.4l-0.7,3.7l0.8,4.1l2,2.4c0,0-0.2,3.2-0.6,3.3c-0.4,0.1,1.6,4.9,2,4.9&#10;&#9;&#9;&#9;c0.4,0,0.7,3.7,0.5,4.5c-0.2,0.8,6.3,8.1,7.9,8.9c1.6,0.8,3,5.1,2.5,6.6c-0.4,1.5-2.6,12.7-2.6,12.7l-4.5,16.5&#10;&#9;&#9;&#9;c0,0-4.9,15.1-5,15.4c-0.1,0.3-7.4,24-7.7,27.1c-0.3,3-5.5,14.4-4.2,16.4c1.3,2-1.3,11.2-1.3,11.2s-4.8,6.9-4,9.9&#10;&#9;&#9;&#9;c0.8,3-2.9,8.1-2.9,8.1s-1.5,6.5-1.5,8.4c0,1.9-1.3,4.2-2.3,4.4c-1,0.2-0.7-3.2-0.7-3.2l1.1-3.8c0,0-1.1-3.2-1.4-3.2&#10;&#9;&#9;&#9;c-0.3,0-1.2-1.5-1.2-1.5s-1-17.6-4.5-22.6c-3.6-5-15.1-11.2-15.1-11.2s-2.3-0.6-5.2-1l2.4-2l2-2l1-1.7l0-2l0.3-0.8l0.5-0.5&#10;&#9;&#9;&#9;l1.5-0.6l0.3-0.2l0-1l0.2-0.7l2-2l7.8-8.4l0.8-1.4l0.2-1.9l-0.2-1.8l-0.8-2.6l-1-1.7l-2.1-2.4l1.9-2.9l2.6-3l4.6-4.2l1.8-2.1&#10;&#9;&#9;&#9;l4.2-6.6l2-3.8l2.2-5.6l0.8-1.6l3.1-3.4l2.5-3.1l0.9-1.7l0.3-1.8l-0.4-0.9l-0.7-0.5l-0.5-0.1l-1.1,0.3l-0.8,0.7l-1.2,1.7l-5,4.6&#10;&#9;&#9;&#9;l-0.1,0.2l-0.3,0l-0.8-0.7l-0.5-1l-0.1-1.5l1.2-3.2l2.8-10.8l0.3-2.3l-0.4-0.8l-0.7-0.7l-1.7-0.5l1.6-3.7l0.1-0.8l-0.3-1.2&#10;&#9;&#9;&#9;l-0.6-0.7l-1.1-0.6l-1-0.2l-1.1,0.5l-0.6,0.8l-3.8,7.4l-1.2,2.2l-0.8,2.1l-1.1,3l-0.5,0.8l-0.3,0l-0.4-1.6l-0.3-2.1l-0.3-5&#10;&#9;&#9;&#9;l0.5-5.4l-0.1-1.6l-0.5-0.9l-0.9-0.6l-0.8-0.1l-1.2,0.1l-0.7,0.8l-0.6,1.6l-1.5,10.6l-1.1,9.9l-3.3,3.5l-0.2,0.1l-0.5,0l-0.6-0.3&#10;&#9;&#9;&#9;l-0.9-1.2l-0.6-1.2l-3.2-7.6l-1.2-1.8l-1.4-1.3l-1.8-0.8l-1.1-0.2l-1.4,0.4l-0.5,0.5l-0.1,0.5l0.5,1l1.3,2.1l0.7,2.2l0.6,3.9&#10;&#9;&#9;&#9;l1.3,5l1.1,6l2.1,4.3l1.4,4.7l0.2,1.8l-1.5,3l-2.2,3.4l-1,0.8l-1.7,0.9l-2.3,3.3l-5.3,5.9l-4.2,6.1l-0.3,0.5l-2.2,0.4l-3.6,1.7&#10;&#9;&#9;&#9;l-2.7,1.6l-7.9,6.3l-7.8,5.6l-12,9.6l-4.6,4.4l-5.9,6.7l-2.9,4.6l-3.8,6l-0.8,1.2l-4.3,2l-2.1,1.5l-1.2,1.3l-1.3,2.2l-0.6,2.1&#10;&#9;&#9;&#9;l-0.4,3.3l-3.3,2.5l-0.8,1l-0.6,1.1l-3.7,1l-2,1.5l-1.3,1.2h-0.6l-1.7-1.1l-1.5-0.2l-4.6,0l0-0.5l-10.5-0.2l-2.9,1.1l-3.8,0.9&#10;&#9;&#9;&#9;l-1.1,0.2l-0.5,0l-0.6,0.1l-0.8,0.1l-0.3-0.1l0.6-1.9l1-1.1l2.8,0l1.6-0.4l1.9-1.5l1.2-1.5l1.4-2.9l1.6-3.1l0.5-1.3l0.2-1.9&#10;&#9;&#9;&#9;l0.4-1.7l0.1-0.9l-0.1-1l-0.9-1.1l0.2-1l0.6-1.1l0.3-0.9l0.7-4.1l1.1-2.3l0.4-1.3l0.1-1.8l0.2-0.8l1.1-2.8l0.2-1.3l-0.3-2&#10;&#9;&#9;&#9;l-0.5-4.8l-0.4-1.4l-0.1-1l-0.2-0.8l-1.3-2.1l-1.5-1.6l-1-1.3l-2.5-2.5l-1.1-1.1l-0.5-0.8l-2.8-2.8l-4.2-1.7l-1.7-0.4l-1.5-0.4&#10;&#9;&#9;&#9;l-2-0.2l-0.5-0.1l-0.3,0.2l-0.7-0.2l-0.7-0.6l-0.6-0.3l-0.9-0.6l-0.8-0.3l-0.8-0.1l-0.5-0.3L930,539l-0.6-0.1l-1,0.1l-0.6,0.3&#10;&#9;&#9;&#9;l-1.4,0.2l-0.7-0.1l0,0l-1-0.3l-0.2,0l0.2,0.4l0.1,0.3l-0.6,0.2l-1-0.3l-1.7-0.1l-1.4,0.6l-0.6,0.4l-0.8,0.4l-2.8,0.3l-1.8,0.5&#10;&#9;&#9;&#9;l-2.5,1l-1.6,1.2l-1.5,1.5l-0.8,0.7l-0.4,0.6l-2.8,2.5l-2,2.4l-0.3,1.3l-0.5,0.9l-0.5,1.5l-0.8,1.6l-0.2,3.3l-0.1,1.7l0.2,0.9&#10;&#9;&#9;&#9;L900,566l-0.1,0.5l-0.4,3l-0.5,1.9l-0.1,1.2l-0.3,1.9l-0.5,5.5l-0.3,8.2l0.2,1.2l0,0.6l0.3,1.1l0.7,0.8l1.5,0.7h1.3l0.3,0.2&#10;&#9;&#9;&#9;l0.3,3.3l0.5,3.7l0.6,2.6l-0.1,1.3l-0.3,0.3l-2.2-0.2l-0.5-0.2l-4.8-0.6l-0.8,0.1l-1.1,0l-0.7,0.1l-0.5,0l-0.7,0.1l-3,0.3l-0.5,0&#10;&#9;&#9;&#9;l-0.7,0l-1.4,0l-1.1-0.1l-0.6-2.3l-0.8-2.4l-0.8-1.3l-1.2-0.8l-10.3-19.6l0.2-1l-0.6-1.6l-1.7-6.2l-1.3-6.1l-11.3-19.7l0.7-1.3&#10;&#9;&#9;&#9;l1.2-1.6l0.1-0.6l-0.3-0.6l-1.3-1l-3.4-1.9l0.4-1.7l1.3-4.9l2.2-5.4l2.7-4.6l1.3-2.7l1.4-3.9l0.8-1.5l1.3-1.4l4.9-3.9l1.2-1.1&#10;&#9;&#9;&#9;l0.4-0.7l0-0.4l-0.4-0.6l-0.8-0.6l-0.9,0.2l-1.3,0.9l-1.5,1.1l-2.5,1.4l-1.7,0.6l-0.8,0.1l-0.4-0.2l-1.1-0.9l0.2-1l1.6-4.3&#10;&#9;&#9;&#9;l1.2-3.7l0.2-1.3l-0.2-0.6l-0.6-0.5l-0.9-0.3l-0.9,0.2l-0.5,0.4l-0.3,0.7l-0.7,2.3l-1.3,3.2l-0.9,1.7l-0.4,0.9l-0.2,0.1l-0.1-0.1&#10;&#9;&#9;&#9;l-0.7-0.6l-0.1-0.3l1-4.9l1.3-4l0.4-1.6l0-0.7l-0.3-0.5l-0.5-0.3l-1-0.2l-0.7,0.1l-0.8,0.6l-0.5,0.8l-1.4,4.3l-1.1,3.1l-0.6,3&#10;&#9;&#9;&#9;l0,0.2l-1.1-0.1l-0.6-0.2l-1.5-3.8l-0.6-3l-0.3-1.2l-0.4-0.6l-0.6-0.3l-0.8,0L845,493l-0.4,0.7l-0.1,1.1l0.3,3.6l0.1,0.9l0.7,4.1&#10;&#9;&#9;&#9;l0.1,1.9l-0.6,1.2l-1,1.2l-1.1,0.5l-0.6,0.1l-0.6-0.1l-1.2-0.9l-2.5-2.4l-2.7-2.6l-1-0.5l-1.1-0.2l-0.7,0l-1,0.3l-0.7,0.5&#10;&#9;&#9;&#9;l-0.1,0.4l0.1,0.4l2,1.8l1.1,1.4l0.5,0.9l2.9,3.8l1.4,2.3l4.8,5l0.7,1.4l0.2,1.7l-0.2,1.2l-0.9,3.6l-0.1-0.2l-4.9-6l-2.3-2.5&#10;&#9;&#9;&#9;l-6.6-3.9l-3.2-1.5l-5.4-1.8l-0.7-0.6l-0.9-1.7l-1.5-1.8l-3.2-6.3l-2.6-5.1l-1.9-4.1l-0.8-1.2l-0.5-0.1l-0.2,0.1l-0.2-0.3l-1-2.6&#10;&#9;&#9;&#9;l-3.1-8.9l-0.4-1.7l0.1-2.5l0.9-2.1l6.4-7.7l1.8-3.4l3.8-5.8l0.7-1.3l1.4-2.2l2.8-2.9l0.2-0.7l-0.2-0.5l-1.1-0.7l-1.4-0.3l-1.1,0&#10;&#9;&#9;&#9;l-1.6,0.4l-1.3,0.8l-3.7,4.1l-3.3,3.7l-1.7,1.4l-0.9,0.2l-1-0.1l-1.6-0.5l-1.5-1.7l-1-1.7l-0.1-2.7l0.6-6.1l0-1.4l0.1-5.3&#10;&#9;&#9;&#9;l-0.3-1.5l-0.6-1l-1.2-0.5l-1.2,0.1l-0.8,0.5l-0.5,0.9l-0.4,1.8l-0.5,4.5l-1.7,5.7l-0.8,0.4l-1.6,0.2l-0.1-0.3l-1.2-4.3l-1.9-4.3&#10;&#9;&#9;&#9;l-2.5-6.1l-0.8-1l-1.2-0.8l-1-0.1l-1.4,0.4l-0.7,0.5l-0.3,0.8l0,1l0.7,2.3l2.3,5.7l2,7l-0.1,0.5l-1,0.9l-0.1,0.1l-0.2-0.1&#10;&#9;&#9;&#9;l-0.6-1.3l-1.4-2.3l-2.2-4.4l-1.2-3.2l-0.6-1l-0.8-0.6l-1.3-0.1l-1.2,0.5l-0.8,0.8l-0.3,1l0.5,1.9l2.2,5.2l2.8,6.1l0.4,1.4&#10;&#9;&#9;&#9;l-1.5,1.4l-0.6,0.4l-1.1,0l-2.5-0.7l-3.8-1.7l-2.3-1.5l-2-1.2l-1.3-0.2l-1.1,0.9l-0.5,0.9l0.1,0.5l0.6,0.9l1.9,1.5l7.5,5.1l2,1.9&#10;&#9;&#9;&#9;l1.4,2.1l2.4,5.5l2.2,3.7l4.4,6.3l3.7,7.6l2.4,6.9l0.7,2.4l-4.8,3.1l-1.8,1.5l-0.4,0.9l0.2,0.9l1.9,2.1l4.3,6.6l5.6,9.2l1.4,4.1&#10;&#9;&#9;&#9;l0.8,2.9l1.6,3.2l2.7,5.1l3.1,6.2l5.9,10.1l4.4,8.9l-4.5,5.9l-7.7,16l-0.6,4.3l-0.8,4.3l-0.3,1.2l0.2,0.7l-6.1,13.9l-0.8,0.6&#10;&#9;&#9;&#9;l-0.5,0.9l-0.4,1.7l-0.3,1.6l-0.8,0.1l-0.9,0.1l-0.5,0l-0.3,0l-2.1-0.1l-0.5,0l-0.3,0l-0.5,0l-0.7,0.1h-0.5l-3.2,0.7l-0.3,0.2&#10;&#9;&#9;&#9;l-1.5,0.3l-0.2-0.2l-0.2-0.9l0.3-1.8l0.1-2.6l0-2.3l0.2-0.1l0.9-0.1l1-0.5l0.4-0.6l0.1-0.8l0-0.4l0.1-0.8l-0.7-5.6l-0.6-3.7&#10;&#9;&#9;&#9;l-0.3-1.3l-0.1-0.8l-0.5-1.3l-0.4-2l-0.1-0.3l-0.3-2.3l0.1-0.6l-0.2-1.2l-0.3-2.3l-0.6-1.1l-0.4-1l-0.4-0.6l-0.3-0.8l-1.5-1.6&#10;&#9;&#9;&#9;l-2-1.5l-0.3-0.4l-0.6-0.4l-1.1-1l-1.2-0.7l-1.8-0.5l-1.2-0.3l-1.9-0.1l-0.6-0.2l-0.5-0.2l-1-0.4l-1.2,0.2l-0.7,0.3l-0.4-0.1&#10;&#9;&#9;&#9;l0.1-0.2l0.1-0.3l-0.1,0l-0.6,0.3l0,0l-0.5,0.1l-1,0l-0.4-0.2l-0.7,0l-0.4,0.1l-2.1,0.6l-0.4,0.2l-0.5,0.1l-0.5,0.2l-0.6,0.5&#10;&#9;&#9;&#9;L757,573l-0.4,0.5l-0.5,0.2l-0.2-0.1l-0.3,0.1l-1.4,0.2l-1,0.4l-1.2,0.4l-2.8,1.4l-1.8,2.1l-0.3,0.6l-0.7,0.8l-1.6,1.9l-0.6,0.9&#10;&#9;&#9;&#9;l-1,1.2l-0.8,1.5l-0.1,0.6l0,0.7l-0.2,1l-0.1,3.3L742,592l0.2,0.9l0.9,1.9l0.2,0.5l0.2,1.2l0.3,0.9l0.9,1.5l0.7,2.8l0.2,0.6&#10;&#9;&#9;&#9;l0.5,0.7l0.2,0.6l-0.6,0.8l0,0.7l0.2,0.6l0.4,1.1l0.3,1.3l0.4,0.9l1.2,2.1l1.1,1.9l0.9,1l1.4,0.9l1.1,0.2l1.9-0.1l0.7,0.7l0.5,1.3&#10;&#9;&#9;&#9;l-0.2,0.1h-0.5l-0.4,0l-0.3,0l-0.7-0.1l-2.6-0.4l-2-0.6l-7.2,0.7l0,0.3l-3.1,0.2l-1,0.2l-1.1,0.8l-0.4,0l-1-0.7l-1.5-0.9L731,616&#10;&#9;&#9;&#9;l-0.5-0.7l-0.6-0.6l-2.4-1.5l-0.5-2.3l-0.5-1.4l-1-1.4l-0.9-0.8l-1.5-0.9l-3-1.2l-0.6-0.8l-2.9-3.9l-2.2-3l-4.4-4.3l-3.3-2.8&#10;&#9;&#9;&#9;l-8.7-6l-5-3.1c0.1-4.6-0.1-8.6-0.7-11.2c-0.9-3.6-1.5-7.9-1.9-12.2c2.4,0.4,4.7,0.7,6.9,1.1c-2.3-0.5-4.6-1-7-1.5&#10;&#9;&#9;&#9;c-0.3-2.4-0.5-4.8-0.8-7.2c14.2-0.2,27.8-0.7,27.1-0.9c-0.6-0.1-13.9,0-27.1,0c-0.7-5.9-1.5-11.5-3-15.9&#10;&#9;&#9;&#9;c-3.4-9.8-12.3-31.4-14-35.7c-1.7-4.3-4.7-10-4.7-10s2-12.6,1.9-18.4c-0.1-5.8-0.3-10.5-1.1-11.2c-0.8-0.7-2.1-1.8-3.1-1.7&#10;&#9;&#9;&#9;c-1,0.1-0.8-0.9-1.8,0.5c-1,1.4-3.4,8.8-3.4,8.8l-1.3-0.9c0,0,4.2-7.8,3.5-10.6c-0.7-2.8-1.4-3.5-2.6-3.6c-1.1-0.1-2.9,0.6-3,1.3&#10;&#9;&#9;&#9;c-0.1,0.6-1.6,11.4-1.6,11.4l0.7-11.2c0,0-1.3-3.4-3.4-2.7c-1.9,0.7-3.7,7.4-3.7,8.4c-0.2-0.6-1.6-3.7-1.8-9&#10;&#9;&#9;&#9;c-0.3-6.1-0.9-6-0.4-8.4c0.5-2.3,1.1-5.1-0.7-5.5c-1.8-0.3-2.8-0.3-4,2.4c-1.2,2.6-0.4,18.6-1.2,20c-0.8,1.5-1.6,1.1-2.3,1.6&#10;&#9;&#9;&#9;c-0.7,0.5-1,1.8-0.8,3.2c0.2,1.4,2.7,5.2,2,10.9c-0.6,5.6-0.3,5.4,0.8,8.3c1.1,2.9,0.7,3.3,3.1,6.3c2.4,2.9,5,3.9,5,3.9&#10;&#9;&#9;&#9;s7.5,19.2,7.2,19.3c-0.3,0.2,1.7,5.2,1.7,5.2s4.6,16.4,4.9,18.5c0.1,1,1.7,4.6,3.1,8.7l-0.7,2.2l-0.4,0.9l-0.5,0.8l-0.4,0.2&#10;&#9;&#9;&#9;l-0.4,0l-0.2-0.1l-2.4-2.2l-1.3-6.8l-1.6-7.2l-0.5-1l-0.6-0.5l-0.8,0l-0.6,0.1l-0.6,0.5l-0.3,0.6l0,1.1l0.6,3.7l0.1,3.5l-0.1,1.5&#10;&#9;&#9;&#9;l-0.2,1.1l-0.2,0l-0.4-0.5l-0.9-2l-0.7-1.4l-0.9-1.4l-3-4.9l-0.5-0.5l-0.8-0.3l-0.7,0.2l-0.7,0.4l-0.4,0.5l-0.1,0.8l0.1,0.6&#10;&#9;&#9;&#9;l1.3,2.5l-1.2,0.5l-0.4,0.5l-0.2,0.6l0.3,1.5l1.9,5.5c-7.9-2.4-16.4-5-19.2-6.5c-5.5-2.8-15-10-15-10c-2.4-2-12-3.4-18.7-2.3&#10;&#9;&#9;&#9;c-6.7,1.1-12.6,7.1-19.2,17.1c-6.6,10-4.8,15.7-7,22.8c-2.3,7.2,6.1,29,2.2,39.9c-4.6,13.1-9.7,22.1-12.9,27.2&#10;&#9;&#9;&#9;c-0.8,0.3-1.6,0.6-2.4,0.8c-2.3-2-4.2-3.6-4.2-3.6s-9.9-9.6-13-11.1c-0.5-0.2-1-0.4-1.5-0.6c1.7-6.7,3.8-14.4,4.5-16.4&#10;&#9;&#9;&#9;c1.3-3.3,4.9-17.6,7.3-20.2c2.4-2.6,5.1-6.8,5.2-9.9c0.1-3.1-0.2-7-1.5-8.1c-1.3-1.1-2.2-0.3-2.8-0.1c-0.6,0.1-1.3,1-1.9,3&#10;&#9;&#9;&#9;c-0.7,1.9,0.9,2.9-0.2,4.1c-1.2,1.2-2.2,1.5-2.7,0.7c-0.5-0.7-0.8-1.9-1-3.5c-0.2-1.6-2.8-1.4-2.2-4.3c0.5-2.9,1.1-5.7,1.4-6.9&#10;&#9;&#9;&#9;c0.3-1.2,2.1-1.6,1.2-2.4c-0.8-0.8-2.3-8.4-5-8.5c-1.3-0.1-2.2,0.5-2.4,1.3c-0.3,1.5,0.1,1.6-0.2,3c-0.4,1.4-0.6,2.1-2.8,2.1&#10;&#9;&#9;&#9;c-2.2,0-1.7-1.3-3.9,0c-0.1-0.2-0.3-0.5-0.7-0.8c-1.9-1.7-1.9-4.3-6.2-5.4c-4.3-1.1-6.4-1.6-8.4-0.6c-1.9,1-4.1,0.5-4.1,0.5&#10;&#9;&#9;&#9;s0.6-6.1-2.3-9.1c-3-2.9-8.2-6.1-10.7-5.9c-2.1,0.1-2.9,0-3,0c0.2,0,2.2,0.3,5.4,1.2c3.4,1,5,2.6,5.4,4c0.5,1.4,2.6,1.2,2.3,3.3&#10;&#9;&#9;&#9;c-0.2,2.1-0.1,3-0.1,3s-2.3-5.4-4.2-5.6c-1.9-0.1-4.8-3-8-3.8c-3.2-0.9-7.5-3.6-9-2.3c-1.3,1.1-3.3,1.9-3.8,2.1&#10;&#9;&#9;&#9;c0.8-0.3,4.8-1.6,5.8,0c1.2,1.9,2,1.7,1.6,3.1c-0.5,1.4-2.8,0.7-5.3,2.6c-2.5,1.9-4.7,3.6-5.3,4.3c-0.6,0.7-2.7-0.1-4.6,1&#10;&#9;&#9;&#9;c-1.9,1.1-4.2,3.8-4.6,4.6c-0.4,0.7-1.5,2.8-1.5,2.8s2.1-2.6,3.2-3.2c1-0.6,3.1-1.1,3.1-1.1s0.9,0.4-0.9,2.7&#10;&#9;&#9;&#9;c-1.8,2.2-3.8,4.2-4.1,5.7c-0.4,1.6-0.6,2.4,0.3,2.8c0.9,0.4,2.2,0.3,1.8,1.5c-0.4,1.2-2.8,1.3-3,2.3c-0.1,1,0.3,2.2,0.6,3.7&#10;&#9;&#9;&#9;c0.2,1.5-0.5,2.3-0.8,2.5c-0.3,0.2-0.6,0.7-0.5,1.4c0.1,0.7,1.7-0.4,1,1.2c-0.7,1.6-0.4,2-1.8,4.1c-1.4,2.1-3,4-2.3,5.6&#10;&#9;&#9;&#9;c0.6,1.6,0.9,2.9,1.7,4.7c0.8,1.9,1.7-0.1,0.9,3.5c-0.9,3.6-0.9,4.3-0.1,6.1c0.9,1.7,1.2,1.7,2.7,2.5c1.5,0.9,2.8-1.4,2,1.7&#10;&#9;&#9;&#9;c-0.9,3.1,1.4,3.8,2.3,4.6c0.9,0.7,3,1.4,3.5,1.4c0.5,0-1.1,3.6-1.2,5.5c-0.1,1.9-1.3,2.4-2.1,2.5c-0.8,0.1-2.9-0.2-3.3-1.2&#10;&#9;&#9;&#9;c-0.4-1,0.9-3.5-1-4.3c-1.9-0.8-3.3-1.9-3.6-4.2c-0.4-2.4-2.7-4.8-3-5.1c-0.3-0.2-1.2-3.5-1.7-5.2c-0.5-1.7,3.2-14.7,3-19.3&#10;&#9;&#9;&#9;c-0.2-4.6,3.2-12.4,0.8-29c-2.3-16.7-0.4-61.3-0.4-61.3s2.1-5.6,1.9-6.6c-0.2-0.9,3.8-5.3,4.2-6.7c0.4-1.4,2.7-10.4,2.7-10.4&#10;&#9;&#9;&#9;s1.2-6,0-8.1c-1.2-2-3.8-3.8-3.8-3.8l-2.5-3c0,0,0.1-0.4-0.6-2.7c-0.7-2.3-0.2-5.7-0.2-5.7s0.4-5-0.8-6c-1.2-1-1.7-0.9-2.6-0.4&#10;&#9;&#9;&#9;c-0.9,0.5-1.1,4.5-1.1,5c0,0.4-0.7,6.4-0.8,7.7c-0.1,1.2-0.9,5.6-0.9,6.3c0,0.7-0.9,1.2-1.7,1.1c-0.8-0.1-1.7-4.2-2.8-5.3&#10;&#9;&#9;&#9;c-1.1-1.2-0.9-5.8-1.2-6.1c-0.3-0.4-1.2-4-1.2-4.7c0-0.7-0.2-4.3-1.1-5.3c-0.8-0.9-1.5-1.2-2.3-1.1c-0.8,0.1-1.5,1.2-1.5,2&#10;&#9;&#9;&#9;c0,0.8,0.3,4.7,0.5,5.6c0.2,0.9,0.4,8.3,0.4,8.3s-2.2-5.3-3-5.9c-0.7-0.6-1.4-3.1-1.5-3.7c-0.2-0.7-0.6-4.1-1.2-4.3&#10;&#9;&#9;&#9;c-0.6-0.2-0.7-0.9-1.9-0.7c-1.1,0.1-1.8,1.4-1.7,2.2c0.2,0.8,1,5.1,1,5.1s-0.8-0.4-1.6-0.3c-0.8,0.1-1.5,0.9-1.5,1.6&#10;&#9;&#9;&#9;c0,0.8,1,4.6,1.3,5.5c0.3,1,1.6,7.1,2,8.2c0.4,1.2,2,6,2.8,8c0.7,2,1.4,5.9,1.4,7.4c0,1.5,1.6,6.6,2,7.6c0.4,1,0.8,2.8,0.7,4.2&#10;&#9;&#9;&#9;c-0.1,1.4-1.9,20.3-2,21.9c-0.1,1.6-4,29-2.9,36.9c1.1,7.9,1.4,16.8,0.8,18.4c-0.6,1.5-5.1,21.3-5.4,27.7c-0.1,2.5-0.5,5.2-1,7.5&#10;&#9;&#9;&#9;c-2.7-3-5.2-5.7-6.7-7.5c-5.1-6.1-16.6-16.9-19.1-20.3c-2.5-3.4-1.3-7-0.6-11.3c0.8-4.2-1.3-9-1.3-9c-2.5-3.3-3.2-3.5-4.3-4.8&#10;&#9;&#9;&#9;c-1.1-1.2-2.4-2.3-5.2-2.8c-2.9-0.5-1.8,0.7-4,1.4c-2.2,0.7-2.7,0.1-3.6-1.1c-0.9-1.3-0.4-1.5-1.3-2.9c-0.5-0.8-1.6-1-2.8-0.5&#10;&#9;&#9;&#9;c-2.6,1-1.5,9.1-2,10.2c-0.6,1.1,1.4,0.9,2,2c0.7,1.1,2.3,3.6,3.8,6.3c1.6,2.7-1,3.4-0.7,5c0.3,1.6,0.4,2.9,0.2,3.8&#10;&#9;&#9;&#9;c-0.3,0.9-1.3,1-2.9,0.2c-1.5-0.8-0.3-2.3-1.6-4c-1.3-1.7-2.3-2.3-2.9-2.3c-0.6,0.1-1.8-0.4-2.7,1.1c-0.9,1.5,0.1,5.5,1.3,8.5&#10;&#9;&#9;&#9;c1.2,3,5.3,6.2,8.6,7.9c3.3,1.7,11.8,14.6,14.2,17.4c2.4,2.8,14.3,20.6,16.2,24c1.9,3.5,3.6,8.4,4.1,10.2c0.5,1.8-2.1,2-2.1,2&#10;&#9;&#9;&#9;s-11.7,0-23.7,0.1c-4.9-3.9-13.1-11-22.2-22.4c-7.6-9.4-6.9-33.9-11.6-40.2c-4.7-6.2-4.9-12.5-14.9-20.1c-10-7.6-18-11.5-25-10.2&#10;&#9;&#9;&#9;c-7,1.2-16,6-17.7,8.8c0,0-6.9,10.5-11.3,15.1c-4.4,4.6-28.5,21.4-30.7,23.3c-0.4,0.3-1.9,0.9-4.1,1.8c-0.5-6.6,0.1-14.9-0.2-16.4&#10;&#9;&#9;&#9;c-0.5-2.2-1.6-20-1.6-20s0.2-5.7-0.2-5.8c-0.3-0.1,0.4-21.6,0.4-21.6s2.2-1.9,3.6-5.6c1.4-3.7,0.9-4,0.9-7.3&#10;&#9;&#9;&#9;c0-3.3,0.5-3.2-2.1-8.5c-2.6-5.3-1.5-10-1.8-11.4c-0.3-1.4-1.1-2.6-1.9-2.9c-0.8-0.2-1.5,0.5-2.8-0.7c-1.3-1.2-6.1-17.2-8.2-19.4&#10;&#9;&#9;&#9;c-2.1-2.2-3.1-1.9-4.8-0.9c-1.6,1-0.1,3.5,1.2,5.7c1.3,2.2,0.7,2.3,2.5,8.5c1.6,5.3,1.4,8.8,1.4,9.5c-0.4-1-4.5-7-6.6-7&#10;&#9;&#9;&#9;c-2.3,0.1-2.4,3.9-2.4,3.9l4.6,10.9c0,0-5.2-10.1-5.5-10.7c-0.3-0.6-2.3-0.7-3.4-0.2c-1.1,0.5-1.5,1.4-1.3,4.4&#10;&#9;&#9;&#9;c0.3,3,7.1,9.3,7.1,9.3l-1,1.3c0,0-4.9-6.6-6.4-7.6c-1.5-1-1-0.1-2,0.1c-1,0.2-1.9,1.7-2.4,2.7c-0.6,1,0.8,5.7,2.8,11.4&#10;&#9;&#9;&#9;c1.9,5.8,8.3,17.6,8.3,17.6s-1,6.6-1.2,11.5c-0.2,4.9-1.5,29.4-1.5,40.3c0,0.5,0,1.1,0.1,1.7c-2.3-3.1-1.8-10.8-1.7-12.5&#10;&#9;&#9;&#9;c0.1-2,1.5-11.5-2.8-14.8c0,0,0.6-11.2-5.1-11.2c0,0-0.7-14.2-1.9-15.7c-1.2-1.4-1.4-10.2-3.2-12.9c-1.7-2.8-2.5-11.6-2-13.9&#10;&#9;&#9;&#9;c0.4-2.3-1-8.3-2.2-8.6c-1.2-0.3-3-7.1-6.7-9.5c0,0-3.2-2.9-3.2-5.5c0-0.3,0-0.5,0-0.8l-1.4,3.7c0,0-1.5,1-2.8-2.1&#10;&#9;&#9;&#9;c-1.2-3.2-0.7-4.1-0.7-4.1v-6.8c0,0-1.3-5.5-3.4-5.6c-2.1-0.1-3.8,5.9-3.8,5.9l-1,6.6c0,0-0.4,2.5,0.4,3.1c0.8,0.6-3.7-0.8-3.5-5&#10;&#9;&#9;&#9;c0,0-1.4-5.3-1.4-6.4c0-1.1-0.6-4.4-2.4-4.3c-1.7,0.1-2.5,2-1.9,4.6c0.6,2.5,1,7.9,1,7.9l0.1,2.8c0,0-2.2-2.6-2.2-3.7&#10;&#9;&#9;&#9;c0-1-1.9-6.1-2.6-6.1c0,0-1.6-2.7-3.6-0.5c0,0-0.3,2.2,0.6,4.6c0.9,2.3,1.3,4,1.3,4l0.3,3.6l1.8,3.6l2.4,1.6c0,0,0.6,2.9,0.3,3.2&#10;&#9;&#9;&#9;c-0.3,0.2,2.7,4.1,3.1,4c0.4-0.1,1.6,3.1,1.6,4c0,0.8,7.9,5.7,9.6,6c1.6,0.3,4.1,3.9,4.1,5.4c0,1.5,1,12.3,1,12.3l0.3,16.3&#10;&#9;&#9;&#9;c0,0-0.5,15-0.5,15.4c0,0.3-0.4,23.9,0.1,26.7c0.5,2.8-1.2,14.5,0.5,16.1c1.7,1.5,1.8,10.6,1.8,10.6s-2.5,7.5-1,10.1&#10;&#9;&#9;&#9;c1.5,2.5-0.5,8.1-0.5,8.1s0.1,2.5,0.3,4.8c-1-0.6-2-1.3-2.2-1.2c-0.3,0.1-2.5-1-2.5-1s-6-15.8-10.6-19.4&#10;&#9;&#9;&#9;c-4.6-3.7-16.9-6.2-16.9-6.2s-11.8,0.3-13.7,4.3c0,0-9,5.7-8.5,12.4c0.5,6.7,0.8,7.3,0.8,7.3l0.1,5.9c0,0-1.3,5.9,0.7,8l1.8,3.3&#10;&#9;&#9;&#9;c0,0,3,14.4,7.5,12.1c0,0,6.6,10.8,7.8,11.6l-0.1,1.9c0,0-7.4,7.2-7.6,9.2c-0.1,0.7-1.9,3-4.3,5.9h-13.8c-1.1,0.6-2.2,1.2-3.2,2.1&#10;&#9;&#9;&#9;c0.4,0,0.8,0,1.3-0.1c-0.4,2-1.2,2.2,0.4,3.5c2,0.2,2-1.5,3.1-2.2c0,0.8,1.5,0.3,1.3,1.3c-0.3,0.6-1.7,0.1-1.8,0.9&#10;&#9;&#9;&#9;c3.1-0.2,5.1,0.9,7.1,1.7c-2.5,3.5-4.5,7-4.8,9.6c-0.3,2.5-0.4,6-0.4,9.4c-0.4,0.2-0.8,0.6-1.1,1c0.4-0.2,0.7-0.3,1.1-0.4&#10;&#9;&#9;&#9;c0,6.1,0.4,11.9,0.4,11.9s-0.5,8.3-0.4,9.7c0.1,1.5,0.4,3.8,0.9,4.9c0.2,0.4,0.3,0.9,0.4,1.4c-0.5,0.1-1,0.2-1.5,0.3&#10;&#9;&#9;&#9;c-0.2-2.7-2.2-3.3-0.4-5.7h-1.7c-0.2-0.4-0.5-0.7-0.9-1.1c-0.6-2.5,0-5.8,0.4-6.9c-1.5,1-2.8,0.3-4,0.9c0.9,0.3,1.3,1.1,2.7,0.9&#10;&#9;&#9;&#9;c0.2,1.1-0.8,1-0.4,2.2c-2.1,0.1-2.6-1.2-3.5-2.2c-0.8,0.2-1.1,1-2.2,0.9c-1.5-0.9-2.7-2-3.5-3.5c-0.7,0.8-1.6,1.5-2.5,1.8&#10;&#9;&#9;&#9;c-0.3-0.1-0.6-0.3-1-0.4l-0.5,0.8c0,0,0,0,0,0c0,0,0,0,0,0l-4.9,7.7c-2.9-2.1-4.8,0.5-7.8-2.3c-4-2.4-0.6-6.4-5.2-8.6&#10;&#9;&#9;&#9;c-0.7,0.2-1.1,0.6-1.5,1.1c-1.1-0.9-2.3-2.1-3.1-3.4l0.3-2.2l0.1-4.6c0,0,0,0,0-0.1c0.1,0.9,1.9,0.1,2.2,0.9c1-2.6,3.4-3.7,6.6-4&#10;&#9;&#9;&#9;c0.7,1.9-2.3,0.1-2.2,1.3c4.6-0.1,8.3,0.9,12.4,1.3c0.2,5,3.2,7.8,6.6,10.6c-0.1-1.1-0.1-2.1,0.9-2.2c0.8-2-1.6-0.8-1.8-1.8&#10;&#9;&#9;&#9;c1.5-0.2,2-1.6,4-1.3c2.3,4.2,6.5,0.2,10.2-0.4c-5.1,1-8.1,1.6-11.5-1.3c0-1.2,0.2-2.5-0.4-3.1c1-0.6,1.7,1.1,1.8,0&#10;&#9;&#9;&#9;c-0.5-0.6-1.5-0.8-2.7-0.9c0.3-2.1-0.5-3-0.4-4.9c1.3-1.3,3.8-1.5,4-4c-1.6,1.4-5.3,5.5-7.5,2.2c0.1,3.1-2.3,3.6-3.1,5.7&#10;&#9;&#9;&#9;c-3.3,0-8.5-2.1-7.5-3.5c-1.9-0.4-3.1-2.5-3.1-3.5c-0.2,0.9-0.7,0.9-1.3,0.4c-0.1-2.2,2.9-3.6,2.2-4.9c-1.1,0.3-1.4,3.8-2.7,2.6&#10;&#9;&#9;&#9;c-0.2-1-0.4-5.9-1.3-6.6c-0.4,1.1-1.2,1.7-1.3,3.1c2.5,1,1.9,4.5,2.2,6.6c-1.6,1.9-3.7,2.9-6,3.6l0-2.6l-0.2-4.5l-1-7.5l-1.1-6&#10;&#9;&#9;&#9;l-0.1-2.5l0-3.1l2.7-4.2l4.5-6.4l1.3-2.4l1.5-3.6l1.7-6.3l1.4-3.7l0.7-1.2l2.2-2.7l3.3-4l2.1-3.3l3.9-7.9l4.3-7.4l2.3-4.5l2-3.7&#10;&#9;&#9;&#9;l1.2-2.3l0.6-2.1l1-3l4.1-6.7l3.1-4.8l1.4-1.6l0.2-0.6l-0.3-0.7l-1.3-1.1l-3.5-2.2l0.5-1.8l1.8-5l2.7-5.6l3.2-4.6l1.6-2.7l1.8-4&#10;&#9;&#9;&#9;l1-1.5l1.4-1.4l5.5-3.7l1.4-1.1l0.4-0.7l0-0.4l-0.4-0.6l-0.8-0.7l-1,0.1l-1.5,0.9l-1.6,1.1l-2.8,1.3l-1.8,0.5l-0.8,0l-0.4-0.3&#10;&#9;&#9;&#9;l-1.1-1l0.3-1.1l2-4.4l1.6-3.8l0.3-1.4l-0.2-0.7l-0.5-0.6l-0.9-0.4l-1,0.1l-0.6,0.4l-0.4,0.7l-0.9,2.3l-1.6,3.2l-1,1.7l-0.4,1&#10;&#9;&#9;&#9;l-0.2,0.1l-0.1-0.1l-0.7-0.7l-0.1-0.4l1.5-5l1.6-4.1l0.5-1.6l0-0.7l-0.2-0.6l-0.5-0.4l-1-0.3l-0.7,0.1l-0.8,0.6l-0.6,0.8l-1.8,4.4&#10;&#9;&#9;&#9;l-1.4,3.1l-0.8,3.1l-0.1,0.2l-1.2-0.2l-0.6-0.3l-1.3-4.2l-0.4-3.2l-0.3-1.3l-0.4-0.7l-0.6-0.4l-0.9-0.1l-0.9,0.4l-0.4,0.7&#10;&#9;&#9;&#9;l-0.2,1.1l0.1,3.9l0,1l0.4,4.4l0,2l-0.7,1.2l-1.1,1.2l-1.2,0.4l-0.7,0l-0.7-0.2l-1.2-1l-2.4-2.7l-2.7-3l-1-0.6l-1.1-0.3l-0.8,0&#10;&#9;&#9;&#9;l-1,0.2l-0.8,0.5l-0.1,0.4l0.1,0.5l2,2.1l1,1.6l0.5,1l2.8,4.2l1.3,2.5l4.7,5.6l0.7,1.5l0.1,1.8l-0.3,1.3l-2.2,6.4l-0.7,1.9&#10;&#9;&#9;&#9;l-0.2,0.2l-0.1-0.1l-0.4,0.1l-0.6,0.9l-1.4,3l-1.9,3.7l-2.3,4.6l-1.1,1.3l-0.7,1.2l-0.5,0.4l-3.9,1.3l-2.3,1.1l-4.8,2.9l-1.7,1.8&#10;&#9;&#9;&#9;l-3.6,4.4l-8.7,9.8l-9.4,16.3l-0.9,4.4l-1.2,4.5l-0.4,1.2l0.1,0.8l-7.5,14.2l-0.9,0.6l-0.6,0.9l-0.6,1.7l-0.5,1.7l-0.8,0.1l-1,0&#10;&#9;&#9;&#9;l-0.5,0l-0.4,0l-2.2-0.2l-0.5,0l-0.4,0l-0.5-0.1l-0.8,0l-0.6,0l-3.5,0.4l-0.4,0.2l-1.6,0.2l-0.2-0.2l-0.1-1l0.5-1.9l0.3-2.7&#10;&#9;&#9;&#9;l0.2-2.4l0.2-0.1h1l1.1-0.5l0.5-0.6l0.2-0.8l0-0.4l0.2-0.9l-0.2-6l-0.2-1.8c0.1-0.8,0-1.6-0.2-2.4l-0.2-1.2l0-0.9l-0.4-1.4&#10;&#9;&#9;&#9;l-0.3-2.2l-0.1-0.4l-0.2-2.4l0.2-0.6l-0.1-1.2l-0.1-2.4l-0.6-1.2l-0.3-1.1l-0.4-0.6l-0.3-0.9l-1.5-1.8l-2-1.8L64,621l-0.6-0.5&#10;&#9;&#9;&#9;l-1.1-1.1l-1.2-0.9l-1.8-0.7l-1.3-0.4l-2-0.2l-0.6-0.3l-0.5-0.3l-1-0.4l-1.3,0.1l-0.7,0.2l-0.4-0.1l0.1-0.2l0.1-0.3l-0.1,0&#10;&#9;&#9;&#9;l-0.7,0.2l0,0l-0.5,0.1l-1-0.1l-0.4-0.2l-0.7-0.1l-0.4,0l-2.3,0.4l-0.4,0.2l-0.6,0.1l-0.6,0.2l-0.6,0.4l-0.5,0.2l-0.5,0.4&#10;&#9;&#9;&#9;l-0.5,0.2l-0.2-0.2l-0.4,0.1l-1.5,0.2l-1.1,0.3l-1.2,0.3l-3,1.3l-2.1,2.1l-0.3,0.6l-0.8,0.8l-1.8,1.8l-0.7,0.9l-1.1,1.2l-0.9,1.5&#10;&#9;&#9;&#9;l-0.2,0.6l0,0.7l-0.3,1.1l-0.4,3.5l-0.2,1.5l0.1,0.9l0.8,2.1l0.2,0.6l0.1,1.3l0.3,0.9l0.8,1.6l0.5,2.9l0.2,0.7l0.5,0.8l0.1,0.7&#10;&#9;&#9;&#9;l-0.7,0.8l-0.1,0.7l0.1,0.7l0.3,1.2l0.2,1.3l0.4,1l1.1,2.3l1,2.1l0.9,1.1l1.4,1.1l1.1,0.3l2.1,0l0.7,0.8l0.4,1.4l-0.2,0.1l-0.6,0&#10;&#9;&#9;&#9;l-0.4,0l-0.4,0l-0.8-0.1l-2.7-0.6l-2.1-0.8l-7.6,0.2l0,0.3l-3.3,0l-1.1,0.1l-1.2,0.8h-0.4l-1-0.8l-1.5-1.1l-2.7-0.8l-0.4-0.8&#10;&#9;&#9;&#9;l-0.6-0.7l-2.4-1.8l-0.3-2.4L8,653.6l-1-1.6l-0.9-0.9L4.7,650l-3.1-1.5l-0.6-0.9L0,646.2V698l1.1,2.3l1.4,2.3l2.7,3.9L6,708&#10;&#9;&#9;&#9;l1.2,2.3l1.3,1.8l1.9,2.2l3.6,4.6l0.4,0.5c-0.2,0-0.3,0.1-0.5,0.1c0.1,0.6,0.2,1.2,0.3,1.8c0.2-0.1,0.5-0.2,0.7-0.3&#10;&#9;&#9;&#9;c2.6-0.1,1.3,3.7,3.5,4c-1.2,1.2-2.6,2.2-2.7,4.4c-0.1-0.3-0.4-0.5-0.6-0.7c0.1,0.7,0.1,1.3,0.1,2H0v83.7v3.9v3v50.3V980h1400&#10;&#9;&#9;&#9;V863.6v-6.4v-18.8v-1.7v-11.8v-2.3v-13.1v-1.2v-5v-72.7v-16.4c-1.4-0.4-3.5,0-3.4,1.7c0.1,0.4,0.2,0.7,0.3,0.9&#10;&#9;&#9;&#9;c-4.7-0.4-9.9,0.3-14.3-0.2c0,0,0,0,0,0c0,0-0.1,0-0.1,0c-1.2-0.2-2.4-0.4-3.5-0.8c-0.1,0.2-0.1,0.3-0.2,0.4&#10;&#9;&#9;&#9;c-2.4-0.6-4.8-1.2-5.7,1c-2.7-0.7-4.4-1.9-7.4-0.5c-0.3-0.1-0.7-0.4-1-0.7c0.4-6.6-0.2-12.6-4.2-16.4c2.7-2.2,5.8,1.1,9,1.1&#10;&#9;&#9;&#9;c6,0,9.4-5.4,14.1-7.3c-0.5-2.4-0.1-3.9,0.8-5c1.7,2.6,3.5,5.4,3.1,8.8C1390.4,703.7,1396.7,706.7,1400,712.9z M1321.2,697.7&#10;&#9;&#9;&#9;c0.3,1.2,0.3,2.6,0.4,4c-0.6,0.5-1.2,1.2-1.8,1.8c-0.2-0.5-0.6-0.9-1.1-1.3C1319.6,700.7,1320.5,699.1,1321.2,697.7z M1317,705&#10;&#9;&#9;&#9;c-0.1,0.7-0.2,1.4-0.3,2c-0.5,0.6-1.1,1.1-1.7,1.5C1315.6,707.4,1316.3,706.2,1317,705z M1137.8,720.7c0.8,0.6,0,2.6,1.3,2.7&#10;&#9;&#9;&#9;c0.1-0.3,0.3-0.4,0.5-0.5c-0.2,0.4-0.3,0.8-0.5,1.2c-1.3,2.3-1.5,5.2-4.1,5.4c-1.9,0.1-2.6-1.9-4.5-3.5c1-1.2,3.2-2.8,2.2-4.1&#10;&#9;&#9;&#9;c-1.5,0.7-1,3.4-3,3.5c0,0-0.1,0-0.1,0c0.6-2.2,1.8-3.7,3-5.3C1134.2,721,1135.9,721.4,1137.8,720.7z M1133.6,716.1&#10;&#9;&#9;&#9;c0.2-0.2,0.5-0.4,0.8-0.6c0.2,0.5,0.2,0.9-0.7,0.7C1133.7,716.2,1133.7,716.2,1133.6,716.1z M1115.3,725.3&#10;&#9;&#9;&#9;c0.3-0.2,0.5-0.5,0.4-1.1c0,0-0.1,0-0.1,0c0.1-0.2,0.1-0.4,0.2-0.6c1.2,0.2,1.9,1,3,0.6c-0.3-1.7-1.1-3.1-2-4.2&#10;&#9;&#9;&#9;c1-4.1,1.6-7.7,1.5-10.3c-0.2-3.2,0-5.3,0.4-7.1c0.1,0,0.1-0.1,0.2-0.1c-0.1,0-0.1,0-0.2,0c0.2-0.9,0.4-1.7,0.5-2.5&#10;&#9;&#9;&#9;c0.2,0,0.3-0.1,0.5-0.1c-0.2,0.1-0.4,0.1-0.5,0.1c0.2-0.8,0.3-1.5,0.4-2.4c2.5-1.5,6-2.1,8.9-1.2c-0.4,2.2-0.3,2.7,1.3,3.5&#10;&#9;&#9;&#9;c-1.3,5.2,2.4,7.5,4.9,10.6c-0.8,0-1.6,0-2.3-0.1c-0.9,0.8-1.7,1.7-1.7,3.4c-2.9,0.2-6-0.4-6.7-3.7c0.2,1.1,0.8,1.7-0.9,1.8&#10;&#9;&#9;&#9;c0.2-1.9-1.4-2.1-2.7-2.7c-0.6,1.7,1,1.3,2.2,1.3c0.5,2-1.5,1.4-1.8,2.7c2-0.7,2.3,1,5.3,0.4c0.8,0.9,1.7,2,2.6,3.1&#10;&#9;&#9;&#9;c-1.1,1.3-1.8,3-2.9,4.3c0.6,0,0.6-0.6,1.3-0.4c-0.4,1.2,0.6,1.1,0.4,2.2c-0.3,0.3-0.6,0.8-0.8,1.2c-1.1-0.5-2.1-1.1-2.9-1.6&#10;&#9;&#9;&#9;c-1.6-1-1.8-2.2-4.2-2.1c1.2,2.6,4.4,3.2,6.5,4.8c-0.5,0.8-1.1,1.3-2.1,0.3c0.1,2.6-0.8,4.2-2.1,5.3h-8.7&#10;&#9;&#9;&#9;C1114.1,728.9,1114.7,727.1,1115.3,725.3z M397.1,692.2c0.8,2.4,3.7,7,0.9,8.8c0.4-1.3-1-0.8-1.8-0.9c1.8,1.3-0.3,2.9-1.8,3.5&#10;&#9;&#9;&#9;c1.4,0.5,1,0,2.7,0c-0.1,1.7,2,1.2,2.2,2.7c-0.1,1.6-1.6-1.1-1.8,0.4c0.1,4.3-0.1,9.3,1.3,13.3c-0.3,0-0.6,0.1-0.8,0.3&#10;&#9;&#9;&#9;c-2.6-2.5-5-5-6.9-8.1c-1.3-2.2-2.7-4.4-4.5-6.1c1.2-6.5,2.7-14.8,2.9-19.8c2.6,1.8,4.3,4.7,6.2,7.2&#10;&#9;&#9;&#9;C396.8,693.7,395.5,691.5,397.1,692.2z M522.8,680.2c0,0.1-0.1,0.1-0.1,0.2c-0.3,0.1-0.5,0.2-0.7,0.4c0.8-1.8-2.1-2-3.5-3&#10;&#9;&#9;&#9;c0.2-1.9,0.6-3.7,1-5.5C519.3,675.3,521.6,677,522.8,680.2z M522.1,707.4c-0.2,0.3-0.4,0.5-0.6,0.8c-0.1-0.7-0.1-1.5-0.2-2.2&#10;&#9;&#9;&#9;c0.1,0.1,0.2,0.2,0.3,0.2C521.8,706.6,522,707,522.1,707.4z M520.2,679.4c0.8,0.7,1.3,1.6,1.5,2.5c-1.3,1.4-3.1,2.4-3.6,4.7&#10;&#9;&#9;&#9;c0-0.8-0.1-1.7-0.1-2.5c0-1.5,0.1-3,0.2-4.4c0.1,0.1,0.1,0.1,0.2,0.2C519.2,680,519.4,679.4,520.2,679.4z M520.9,709&#10;&#9;&#9;&#9;C520.9,709,520.9,709,520.9,709l0.9,0.1c-1.4,2.2-2.5,4.3-3.7,6.3c-0.4-0.7-1-1.3-1.9-1.4C517.7,712.2,519.2,710.5,520.9,709z&#10;&#9;&#9;&#9; M517,717.1c-0.5,0.7-1,1.3-1.5,1.9c0,0-0.1,0-0.1,0c-0.7-0.4-1.3-0.2-1.6,0.2c-0.4,0-0.9,0-1.3-0.1c1.1-1.8,2.4-3.4,3.7-5&#10;&#9;&#9;&#9;C516.3,715.2,516.6,716.1,517,717.1z M551.3,725.8c0.3,0.5,0.6,1,0.9,1.5c0,0,0,0.1,0,0.1c-0.2,0-0.5-0.1-0.7-0.1&#10;&#9;&#9;&#9;C551.4,726.8,551.4,726.3,551.3,725.8z M560.4,730.7c-2.2-0.3-3.2-2.3-2.2-4.4c-0.3-0.1-0.6-0.2-0.8-0.3c0.3-1.2,0.6-2.6,0.6-4.1&#10;&#9;&#9;&#9;c-1.4,0.8-3.5,2.3-4.8,3.9c-0.4-0.9-0.5-1.9,0-3c-1.2-0.7-1.9-1.7-2.2-2.9c-0.1-1.2-0.1-2.4-0.2-3.6c0.1-1.4,0.3-2.9,0.5-4.3&#10;&#9;&#9;&#9;c0.7,0.2,1.5,0.5,2-0.3c0.6-1.3,1-2.8,1.1-4.5c0.6-0.7,2-0.5,3.1-0.7c0,1.2,0,2.3-0.9,2.5c1.6-0.3,3.4-0.3,5.2-0.4&#10;&#9;&#9;&#9;c0.2,0.2,0.4,0.4,0.6,0.6c0.6,2.6,3,3.4,4.2,5.3c-1.6,3.5,1.2,5.9-0.7,9.6c-1.9,0.1-2.4-1.1-4.6-0.7c0.6,1.3,1.3,2.8,1.9,4.3&#10;&#9;&#9;&#9;c-0.1,0.7-0.3,1.4-0.9,1.7c0.2-0.7-2.4-0.7-2.2,0c0.1,0.9,1.6,0.4,1.8,1.3H560.4z M558.6,706.8&#10;&#9;&#9;&#9;C558.6,706.8,558.6,706.8,558.6,706.8C558.6,706.8,558.6,706.8,558.6,706.8C558.6,706.8,558.6,706.8,558.6,706.8z M563.9,708.2&#10;&#9;&#9;&#9;c0.2,0,0.3-0.1,0.5-0.1c0,0.1,0,0.2,0,0.4C564.2,708.4,564.1,708.3,563.9,708.2z M565.5,709.3c2.8-0.6,5.3-0.6,7.8-0.2&#10;&#9;&#9;&#9;c-0.7,1.8-1.3,3.5-3.3,3.7C568.1,712.9,567.4,710.9,565.5,709.3z M692,685.2c0.4-0.9,1-1.6,2.1-1.8c0.1-0.6,0.2-1.1,0.1-1.6&#10;&#9;&#9;&#9;c0.2-0.1,0.5-0.2,0.8-0.1c1,1.4,2.1,2.8,2.5,4.8c0.1,0.4,0.1,0.9,0.1,1.3c0,0.2,0,0.3,0,0.5c-0.5,0.1-0.7,0.5-0.9,0.9&#10;&#9;&#9;&#9;c-1.9,0-3.5-0.4-5-0.7c0-0.1-0.1-0.2-0.1-0.3c1,0,2,0.2,2.4-0.4C694.2,686.1,692.5,686.2,692,685.2z M696.6,681.9&#10;&#9;&#9;&#9;c0.1,0.1,0.3,0.2,0.4,0.2c0,0.1,0,0.3,0.1,0.4C696.9,682.4,696.8,682.1,696.6,681.9z M696,692.7c1-0.1,1-1.3,1.9-1.7&#10;&#9;&#9;&#9;c0,0.3,0,0.7-0.1,1c-0.6,1.2-1.4,1.5-2.3,1.7c-1.7-1.3-2.4-2.6-3.2-4.5c1.3,0.2,2.5,0.5,3.3,1.2&#10;&#9;&#9;&#9;C695.8,691.9,694.6,692.3,696,692.7z M714.1,712.8c0.4-3.9,4.4-4.3,7.5-5.5C719.2,709.3,716.8,711.3,714.1,712.8z M728.7,714.5&#10;&#9;&#9;&#9;c0.4-0.4,0.8-0.7,1.2-1.1c0.1,0.9,0,1.8-0.1,2.6C729.3,715.5,728.9,715,728.7,714.5z M994.2,655.2l2.5-5.1l2.3-5.5l3.4-8.9&#10;&#9;&#9;&#9;c1,4.8,3.8,10.5,6.7,12.2c-3.1-3.8-3.6-9-6.5-12.9l0.5-1.3l3.9-8.8l2.2-4.1l2.2-3.2l7.8-11.1l4.8-6.1l3-4l1-1.8l0.2-1.1l0.4-1.3&#10;&#9;&#9;&#9;l0.6-0.6l2.7-0.6l1.6-0.5l2-1.2c-0.6,1.2-2.7,5.7-1.5,8l0.9,3.8c0,0-1.2,15.5,4.1,14.4c0,0,3.5,12.8,4.5,14l-0.7,1.9&#10;&#9;&#9;&#9;c0,0-9.6,5.1-10.4,7c-0.8,1.9-18.5,11.7-21.4,18.6c-1.6,3.7-3.3,9.8-4.5,14.6c-3.7-6.2-6.9-12.6-12.1-15.9c-0.2,0-0.5,0.1-0.7,0.1&#10;&#9;&#9;&#9;L994.2,655.2z M976.7,680.8l4.9-6.3l2.6-3.1l1.8-2.4l1.6-3.1l1.1-2l1.1-1.5c2.9,7.5,10,12.7,12.9,20.5c0.1,0.4,0.2,0.7,0.3,1.1&#10;&#9;&#9;&#9;c-5.4-0.5-10.8-1.9-15.3-6.8c-4.2,1.9-5.1,5-7.6,8.5c-0.1,0-0.1-0.1-0.2-0.1c-2.1,0.5-4.5,0.2-6.3-1L976.7,680.8z M973.1,686.5&#10;&#9;&#9;&#9;c-0.3,1.2,2.1-0.3,1.8,0.9c-0.3,0.7-2.2-0.1-1.8,1.3c0,0.1,0,0.2,0,0.4c-0.2,0-0.5,0-0.7,0C972.7,688.2,972.5,686.9,973.1,686.5z&#10;&#9;&#9;&#9; M971.3,689.1c-0.4,0-0.8,0-1.2,0C970.6,688.7,970.9,688.8,971.3,689.1z M824.2,615.6l3.8-6.4l1.1-2.4l1.2-3.5l1.1-6l1-3.6&#10;&#9;&#9;&#9;l0.5-1.2l0.6-0.8l0.3,1.3l2,4.9l1.8,3.3l6.3,8.8l3.7,5.9l0,4.3l-0.2,3.4l-1.5,8.2l-1.4,10.4l-0.3,6.2l0.1,4.3l-0.4,1.2l0,0.7&#10;&#9;&#9;&#9;l0.6,2.7l0.2,6.5l1,7.9l2.6,18.4l-0.8,4.2c-0.1-0.6-0.1-1.1-0.2-1.6c-10,0.4-4-16.3-10.9-17.6c-4.2-0.8-5.9,3.6-8.1,7.5l-1.2-5.3&#10;&#9;&#9;&#9;l-1.8-6.6L826,658l0.3-5.5l-0.2-4.5l0.3-1.9l0-0.5l-0.3-0.8l-0.2-2.9l-0.5-4.3l-1.5-7l-1.4-5.6l-0.3-2.3l-0.2-3L824.2,615.6z&#10;&#9;&#9;&#9; M752.3,715.6c0.3,0.6,0.6,1.2,0.8,1.9l0.6,2.3c0.1,0.1,0.2,0.2,0.3,0.4c0.6,1.9,0.8,4,0.2,6.5c-1.7-0.9-0.8-4.4-3.9-3.9&#10;&#9;&#9;&#9;c-0.3,2,0,3.2,0.6,4.3c-1.1,0-2.2-0.1-3.2-0.1C748.8,722.7,750.1,718.8,752.3,715.6z M746.9,703.8c0.4-0.2,0.9-0.4,1.7-0.3&#10;&#9;&#9;&#9;c0.3,0.1,0.6,0.3,0.8,0.5l0.7,2.6c-0.1,1.3,0.1,2.6,0.3,3.7c-1.5,1.3-2.8,3.1-4.1,4.8c-0.1-3.6-1.3-7.5,0.9-10.6&#10;&#9;&#9;&#9;C747.3,704.3,747.1,704,746.9,703.8z M739.4,707.3c2.8,0.8,1.4-0.4,2.2-1.8c1.1,2.6,2.5,6.2,0.4,8c1.2,0.4,1.1-0.6,2.2-0.4&#10;&#9;&#9;&#9;c1.2,2.6-0.4,3.6-0.9,5.7c-2.9,0.2-4.1,0.6-5.7-0.9C737.7,714.8,737.9,710.2,739.4,707.3z M687.2,618.8c0.8-1.3,1.7-4.7,2.5-9.2&#10;&#9;&#9;&#9;l0.2,0.1l1.6,1.3l1.5,0.8l1.1,0.2l1.9,0.3l0.4,0.4l0.4,0.9l0.2,0.7l0.8,1.2l2.3,2.6l3.6,3.9l5.9,7.2l1.7,2.1l1.7,2.7l3.1,5.8&#10;&#9;&#9;&#9;l3.4,7.3l1.8,3.6l1.9,3.4l1.5,2.1l2.9,3.5l0.8,1.3l1.3,2.1l1.3,1.6l0.9,1c0.5,0.9,1.1,1.8,1.5,2.9c-1.2,3.5-5.9,3.5-4.5,9.6&#10;&#9;&#9;&#9;c-0.5,1-2,1-2.8,1.7c1.1,2.5,0.4,4.5,0.7,6.1c-0.9,1-1.7,2.2-2.6,3.2c1,0.5,0.3,2.6,2.2,2.2c0.1,4.4,0.7,7.7,1.4,11.4&#10;&#9;&#9;&#9;c-0.3-0.2-0.7-0.4-1.2-0.4c0.1,0.3,0.2,0.7,0.3,1c-1.5,1-3,2.1-4.4,3.2c-2.4-0.9-5.1,1.3-7.6,1.9c-0.1,0-3.7-0.2-4.3,0.7&#10;&#9;&#9;&#9;c-2.5-3.2-5-6.4-7.3-8.9c0.6-0.2,1.4-0.3,1.9-0.6c-0.1,1.3,0.1,2.2,0.9,2.7c1.2-2.5,4.3-3.1,6.6-4.4c0-0.1,0-0.2,0-0.2&#10;&#9;&#9;&#9;c-4.3,0.8-9.2-2-8.8-6.9c-0.3-0.1-0.6-0.2-0.9-0.4c0.3,0.1,0.6,0.2,0.9,0.1c0.1-0.5,0.2-1,0.4-1.6c0.3-0.9,0.4-1.7,0.3-2.6&#10;&#9;&#9;&#9;c-0.4-0.5-0.8-1-1.2-1.6c-0.4,0.1-0.9,0.1-1.3,0c0.3-1.7,0.6-3.4,0.8-5.1c3.3-1.3,6.4-2.8,4.8-7.5c-3.3-0.1-4.4-4.1-7.9-4&#10;&#9;&#9;&#9;c-0.1-0.1-0.1-0.1-0.2-0.2c-0.1,0.1-0.2,0.2-0.3,0.2c0,0,0,0,0,0c-3,0.4-6,5-3,7.4c0,0.5,0,1,0,1.4c-0.4,0.6-0.8,1.3-1,2.1&#10;&#9;&#9;&#9;c-0.6-1.6-1.1-3.3-1.5-5c-0.4,0-0.7,0-1.1,0c0.4-0.8,0.9-1.5,1.3-2.3c-1.5,0-2,1.1-3.9,0.7c-1.2-0.4-1.6-1.7-1.4-3.5&#10;&#9;&#9;&#9;c-0.5-0.3-1.1-0.6-1.6-0.9c-0.3-1.7-0.6-2.9-0.7-3.1c-0.4-0.9-3.4-12.2-3.5-19.1C682.9,639.2,684.4,623.7,687.2,618.8z&#10;&#9;&#9;&#9; M727.4,690.9c-2.2,0.1-2.2-2.7,0-2.7C728,688.8,728,690.3,727.4,690.9z M666.4,558.5l0.7-3.3l0.4-1c0.1,0,0.2,0,0.3,0.1&#10;&#9;&#9;&#9;c0,0.7,0,1.3-0.1,1.8c-0.3,1.5-0.7,2.9-1.1,4.3l-0.3-0.6L666.4,558.5z M657.7,568.7l1.9,1.9l1.5,1.9l0,0c-1.4-1.6-2.8-3-3.9-4.3&#10;&#9;&#9;&#9;L657.7,568.7z M647.8,577.3c0.7-0.3,7.3,3.9,14.8,8.7c-0.3,0.7-0.5,1.4-0.9,1.9c-2.4,3.4-1.1,6-6.6,10.4c-0.8,0.7-1.6,1.2-2.3,1.7&#10;&#9;&#9;&#9;c0.4-0.7,0.7-1.4,1.1-2.2C656.3,592.7,646,578.1,647.8,577.3z M593,594.9l0.4,1.2c-2.4,4.7-6.8,11.4-11.1,18.7&#10;&#9;&#9;&#9;c-2.2,3.6-3.7,7.3-4.7,10.6c-1.2,0.4-2.8,0.9-4.6,1.5c0.7-0.9,1.4-1.8,2.1-2.8C579.2,618.8,588.6,602.6,593,594.9z M578.1,598.6&#10;&#9;&#9;&#9;c-0.7,3.4-7,19.6-11.4,30.5c-2.4,0.8-5.1,1.8-7.7,2.7C566.6,620.2,579,594.2,578.1,598.6z M550.7,669.7c10.5-3,12-2.9,16.1-0.3&#10;&#9;&#9;&#9;c4.1,2.5,17.2,9.1,19.6,15.3c1,2.6,2.8,6.1,4.7,9.7c-2.5,1.6-4.5,3.8-6.4,6.1c-3-3.9-4-9.9-6.4-14.5c2.3,7,4.9,16.7-1.5,20.2&#10;&#9;&#9;&#9;c-0.4-0.6-1.4-1.3-3-1.9c-1.1,1.3-1.5,2.3-1.6,3.1c-2.4,0.2-4.6,0-6.7-1.7c-0.2-0.9-0.1-2.1,0-3.2c1.7-2.4,2.7-5.5,3-9.3&#10;&#9;&#9;&#9;c-2,0.9-2.7,3.1-3.3,5.5c-0.2-0.5-0.6-0.8-1.1-1c0.2,1,0.4,2.2,0.6,3.3c-0.3,1.3-0.7,2.6-1.2,3.7c0.5-0.4,0.9-0.9,1.3-1.3&#10;&#9;&#9;&#9;c-0.2,1.2-0.7,2.2-1.9,2.7c-0.6-0.7-1.1-1.5-2.2-1.8c0,0.9-0.4,1.6-1,2c-0.3-0.2-0.6-0.3-0.8-0.5c-0.3-0.2-0.5-0.3-0.7-0.5&#10;&#9;&#9;&#9;c1-5,1-10.2,3-14.9c1.2,1.9,0.6,4.8,1.7,6.9c0.4-1.1,0.6-2.4,0.4-4c2-0.6,2.1,0.8,3.1,1.3c0.9-3.9-0.8-6,0.9-9.3&#10;&#9;&#9;&#9;c1.1,0.3,2,0.6,3.5,0.4c0.5-1.1,0.8-2.4,1.8-3.1c0.1,0.5-0.1,1.3,0.4,1.3c0-0.7,1.2-0.2,1.3-0.9c-2.6-2-3.5-5.7-8-5.7&#10;&#9;&#9;&#9;c-0.3-1.3,0-1.9,0.6-2.3c-0.7-0.8-1.3-1.6-2-2.4c-0.8,2.7,0.5,5-1.7,6.5c1.2,2.2,0.6,7.3-1.4,9.6c-2.5-0.5-3.8-2.2-5-3.9&#10;&#9;&#9;&#9;c-0.1-1.8,1.5-1.9,1.1-3.9c-3.7-1.4-7.5-5-10.7-8.4c-3.6,1.4-6.9,0.1-8.4-2.2C542.7,670.7,546.8,670.8,550.7,669.7z M539,670.1&#10;&#9;&#9;&#9;c-4.7,2.6-10.5,4.1-15.7,6.2c-2.3-0.9-0.4-5.9-3.3-6.2c0.5-1.8,1.1-3.6,1.9-5.3c2.3,0.8,4.1,1.4,4.8,1.6&#10;&#9;&#9;&#9;C528.4,666.7,533.2,669,539,670.1z M526.1,579.2c0.5-1,1.1-1.7,1.7-1.5c0.1,0.9,0,1.8-0.3,2.8c-0.2,0.5-0.5,1.3-0.8,2.2&#10;&#9;&#9;&#9;C526.2,580.7,525.6,580.3,526.1,579.2z M525,580.2c0,0,1,1.1,1.3,3.2c-0.3,0.8-0.7,1.7-1.2,2.6c0.2-1.4,0.3-3-0.4-3.7&#10;&#9;&#9;&#9;C523.7,581.3,525,580.2,525,580.2z M508.6,610.5c0.7-1.3,2.8-5.2,4.3-6.3c1.4-1.1,4.5-6.9,4.9-7.6c0.4-0.7,3-5.1,3-5.5&#10;&#9;&#9;&#9;c0-0.2,1.5-0.7,2.7-1.4c-2.4,5.2-5.3,11.2-6.8,15.1c-0.9,2.3-2.3,5.7-4,9.5h-2.2c-1.6,0-3,0.6-3.2,0.8c-0.2,0.2-1.6-2.6-1.6-2.6&#10;&#9;&#9;&#9;S507.9,611.9,508.6,610.5z M403.7,664.1c3.2-3.9,4.6-4.6,16.1-5.3c6.7-0.4,12.4-3.8,16.5-6.8c0.1,3.6,0.3,7.3,1,9&#10;&#9;&#9;&#9;c1.5,3.5,2,3.5,2,7.4c0,4-0.6,10.5-1.7,13.3c-0.6,1.5-1.4,3.9-2.1,6.3c-1.8-0.2-3.6-0.5-5.4-0.9c0.5,0.7,1,1.4,2,1.5&#10;&#9;&#9;&#9;c-1,0.1-0.9,1.1-0.9,2.2c-0.6-0.2-2.3,0.5-2.2-0.4c0.6-1.5-0.1-0.7,1.3-1.3c-0.9-0.3-0.1-2.2-1.8-1.8c-0.5,0.4-0.9,0.9-1.3,1.3&#10;&#9;&#9;&#9;c1.1,0.9,1.6,2.5,1.3,4.9c-1.2-0.3-0.9,0.9-1.8,0.9c0-0.5-0.1-1-0.9-0.9c0.5,3.4-6.5,3.4-4.9,8c-1.3,1-4.2,0.5-5.7,1.3&#10;&#9;&#9;&#9;c0.4,0.6,0.7,1.4,1.8,1.3c5.9-3.2,12.1-0.7,17.3-1.8c0.1,2.4,0.2,4.9,0.5,6.9c-2,1.6-4.7,2.1-8.9-0.1c-0.3,0.9-1,1.5-1.8,1.8&#10;&#9;&#9;&#9;c-0.7,4.6,1.6,6.1,1.2,10.3c-1.9,0.4-1.9-1.1-3,0c0.9,2.4,1.6,3.5-1.2,4.3c-2.3-1-0.8-5.7-3.6-6.1c0.9,4,1.5,8.2,0.3,11.1h-3.7&#10;&#9;&#9;&#9;c-1.4-0.9-2.9-1.9-4.4-2.7c-0.6-1.3,1.2-2.2,0-2.7c-1.4,2.5-3.7-1.2-4.9-1.8c-0.1-3.1,0.8-4.8-0.9-6.6c2-0.3,0.1-3.4,0-4.4&#10;&#9;&#9;&#9;c0.8-0.2,1.1,0.7,1.3,0c-0.6-1.5-2-4.4-0.4-4.5c-1-0.3-0.3-2.4-0.9-3.1c3.8,0,1.1-3.8,2.2-6.6c0.9-0.3,2.9,0.5,3.1-0.4&#10;&#9;&#9;&#9;c-0.4-0.7-1.1-0.9-2.2-0.9c0.3-1.5-0.5-1.9-0.9-2.7c1,0.1,1.4-0.4,1.3-1.3c-0.3-0.6-1.7-0.1-1.8-0.9c0.5-0.1,1.3,0.1,1.3-0.4&#10;&#9;&#9;&#9;c-0.1-0.8-1.5-0.3-1.3-1.3c1.6-1.1,0.3-2.8,0.9-4.4c0.7-0.6,2.1-0.6,2.7-1.3c-0.7,0-1.5,0.1-1.3-0.9c0.2-1,2.2-0.2,3.1-0.4&#10;&#9;&#9;&#9;c0.4,1.4-0.4,1.7-0.9,2.2c0.4,0,0.5,0.4,0.9,0.4c2.7-1.1,6.2-4,8.8-1.3c0,1.6-0.5,1.3,0,2.7c-1,0.6-2.5,0.8-3.5,1.3&#10;&#9;&#9;&#9;c0.8,0.3,0,2.1,0.9,2.2c2.2-0.4,5.5-0.4,7.1-3.5c2.2,0.6,2.8,0.1,3.8-0.7c-4.5-1.2-8.7-3.2-12.1-5.9c-3.9-0.2-7.8-0.3-11.7-0.4&#10;&#9;&#9;&#9;c-3.4-0.1-6.8-0.1-10.2-0.1c-0.1,1.3-0.4,2.4-0.9,3.3c0.5,0,0.9,0.2,1.1,0.7c-0.7,0-1.5-0.1-1.3,0.9c1.4,0.3,1.3-0.8,2.7-0.4&#10;&#9;&#9;&#9;c0,1.2-0.2,2.6,0.9,2.7c-0.5-1.3-0.5-2.7,0-4c2.1,0.2,1.3,3.2,2.7,4c1.4,0.4,1.7-0.4,2.2-0.9c-0.1,0.8,2.1,1.4,0.9,1.8&#10;&#9;&#9;&#9;c-1-0.2-0.8,3.7-3.1,4.4c-0.1-1-1.5-0.8-1.3-2.2c1.4,0.1,2.7,0,3.1-0.9c-1.8-0.7-2.4-2.6-4-3.5c0.1,1,1.5,0.8,1.3,2.2&#10;&#9;&#9;&#9;c-2.1-0.2-3.7,0.1-5.3,0.4c-0.6-0.7-0.4-2.3-1.3-2.7c-0.3,0.1-0.5,0-0.8-0.2c-0.3,0.2-0.6,0.3-0.9,0.4c0-0.1,0-0.2,0-0.3&#10;&#9;&#9;&#9;C389.9,679.1,400.5,668,403.7,664.1z M434.2,701.3c-2.4,0.2-4.6-0.4-7.9-0.7c2.3-0.5-0.7-2.5,0-4.9c0.7-0.6,1.5-1.2,3.1-0.9v-2.2&#10;&#9;&#9;&#9;c1.7-0.2,2.5-1.3,4-1.8c0.7,1.6-1.5,0.3-1.3,1.3c0.5,1.1,1.7-0.9,2.2,0.4c-0.3,0.8-2.5,1.9-1.3,2.7c0.4-0.6,0.8-1,1.3-1.5&#10;&#9;&#9;&#9;c0,0.1,0,0.3,0,0.4C434.1,695.6,434.1,698.3,434.2,701.3z M421,686h3.1C424.2,687.8,420.8,687.8,421,686z M398.4,624.1&#10;&#9;&#9;&#9;c-2.9,0-5.9,0-8.6,0.1c-8.1-9.3-20-23.1-21.9-26.2C365.5,594,386.9,615.4,398.4,624.1z M383.9,722.5c-0.1,0-0.1,0-0.2,0&#10;&#9;&#9;&#9;c0-0.3,0.1-0.6,0.1-1C383.9,721.9,383.9,722.2,383.9,722.5z M351.9,599.5c7,6.1,22,18.9,27.8,22.7c1,0.7,2,1.3,3.1,2&#10;&#9;&#9;&#9;c-2,0-3.7,0-5,0.1c-2.2-2.9-5-6.1-8.4-8.9c-6.8-5.7-13.5-10.8-17.5-14.6L351.9,599.5z M291.7,601.2c2,0.1-3.1,18.2,1.2,22.4&#10;&#9;&#9;&#9;c0.6,0.6,1.2,1.2,1.8,1.8c-0.9-0.2-1.9-0.5-2.9-0.8c-7-2.5-6.6-5.5-10.1-8c-0.5-0.4-1-1-1.6-1.6&#10;&#9;&#9;&#9;C285.8,607.5,290.9,601.1,291.7,601.2z M275.1,605.3c-0.9-2.1-1.7-4.1-2.2-5.4c4.6-4.9,8-8.7,8.8-10.2&#10;&#9;&#9;&#9;C281.7,589.7,278.7,596.7,275.1,605.3z M284.5,574c0.2-0.3-2.3,16.8-9,22.4c-0.8,0.7-1.8,1.6-3,2.6c-1.8-3.7-5.4-7.2-8.2-12&#10;&#9;&#9;&#9;c-0.2-0.5-0.5-1.1-0.7-1.7c4.9-2.8,8.8-5.2,10.6-6.5C281.9,573.3,284.3,574.4,284.5,574z M270.4,578.1c2.4-1.5-1.1,1-7.2,5.1&#10;&#9;&#9;&#9;c-0.1-0.6-0.2-1.2-0.3-1.8C266.5,580,269.1,578.8,270.4,578.1z M243,596.4c-0.2,0.1-0.4,0.2-0.6,0.4c-0.1-1-0.1-2.1-0.1-3.3&#10;&#9;&#9;&#9;C242.5,594.4,242.8,595.4,243,596.4z M240,630.3c0.2-3,3.8-12.1,3.8-17.9c0-5.8,0.6-12.3-0.7-13.4c-0.3-0.2-0.5-0.9-0.6-1.9&#10;&#9;&#9;&#9;c0.2-0.1,0.4-0.2,0.6-0.3c1,4.5,1.9,8.9,2.3,12.8c0.3,3.2,1.8,8,3.9,13.2c-4.2,4.6-7.5,8.3-8.5,9.8c0,0,3.7-3.6,8.8-8.8&#10;&#9;&#9;&#9;c1.4,3.5,3,7.1,4.8,10.7c-0.2,0.1-0.3,0.1-0.3,0.1c0.1,0,0.2-0.1,0.3-0.1c4.9,10.1,10.3,19.5,12.7,21.5&#10;&#9;&#9;&#9;c4.4,3.8,11.1,18.2,13.4,25.2c-1.4-0.2-2.8-0.5-4.1-0.9c-1.5-0.4-2.6-1.1-3.4-2c-0.7,0.8-1.4,1.5-2.2,2.1c0.3,0,0.6,0,0.9-0.1&#10;&#9;&#9;&#9;c0.8,3.3-0.4,4.9-1.3,7.5c1.9-1.4,2.3-4.2,4.4-5.3c1.1,0.7,0.8,2.7,2.7,2.7c1.4-0.5,2.7-0.9,4-1c1.1,4.3,1.7,9.6,2.1,13.3&#10;&#9;&#9;&#9;c-0.8,0.9-1.5,1.8-2.2,2.8c-1.5,0.3-3.2-1.5-4-0.4c0,1.3,2,1.5,2.7,0.9c-0.2,2.5-1,4.3-2.7,5.3c3,0.5,1.9-3.1,4.9-2.7&#10;&#9;&#9;&#9;c0.1,0.7-0.2,1.6,0.4,1.8c-0.1-1.2,0.6-2.1,1.2-3.1c0.1,0.6,0.3,2.1,0.5,4c-0.3,0-0.5,0-0.8,0c0.3,0.1,0.6,0.2,0.9,0.4&#10;&#9;&#9;&#9;c0.1,1,0.3,2.2,0.5,3.3c-0.2-0.1-0.5-0.2-0.7-0.3c-1.6,0.3-3.2,0.6-4.9,0.8c0.2-0.9,0.3-1.8,0.3-2.8c-1.2,0.7-2.9,1.8-4.1,3.1&#10;&#9;&#9;&#9;c-0.3,0-0.5,0-0.8,0c-0.4,0.2-0.8,0.4-1.2,0.6c-0.4-0.1-0.7-0.2-1-0.4c-0.3-1.4,0.8-1.3,0.4-2.7c-2.8-0.3-3.2-6.4-5.7-8.4&#10;&#9;&#9;&#9;c0.4-1.2,2-1.2,2.7-2.2c-1.6-1.8-2.2-6.5-1.8-9.7c-0.8,0.6-1.7,0.9-1.8,2.2c1,2.5-0.3,4.1-1.3,5.7c-2,0.5-2.2-0.7-3.5-0.9&#10;&#9;&#9;&#9;c-0.3,0.6-1.1,0.9-1.7,1.2c-0.5-2.5-1.9-5.5-5.9-11.2c0,0-3.6-12.6-6.5-16.3c-2.9-3.6-5.5-18.3-7-17.9&#10;&#9;&#9;&#9;C238.9,651.2,239.9,633.3,240,630.3z M272.1,712.2c-1.4,1.1-2.5,2.4-3.6,3.7c-0.3-0.4-0.8-0.7-1.3-1.1&#10;&#9;&#9;&#9;C268.6,713.6,270,712.3,272.1,712.2z M264.1,705.9c1.7-0.2,2.8,0.2,3.1,1.3C265.6,707.4,264.5,707,264.1,705.9z M209.6,623.9&#10;&#9;&#9;&#9;c0.3,0.8,0.4,1.4,0,1.6C209.1,625.8,209.3,624.8,209.6,623.9z M155.8,675.4c1.1,0.1,1.6-0.3,2.2-0.7c-0.6,0.7-1.1,1.5-1.7,2.2&#10;&#9;&#9;&#9;C156,676.7,155.5,676.4,155.8,675.4z M150.1,727.1c0.4,0,0.8,0,1.2,0c0.1,0.6,0.2,1.3,0.2,2.2c-0.6-0.1-1.1-0.3-1.8-0.7&#10;&#9;&#9;&#9;C149.8,728.2,149.9,727.7,150.1,727.1z M134.8,718.3c1.2,0.1,1.8,0.5,1.1,1.7c2.7,0.3,3.4,2.7,5.9,3.2c-2.1,1.6-4.3,2.3-7.3-0.4&#10;&#9;&#9;&#9;C133.6,721.6,134.3,719.9,134.8,718.3z M108.8,713.4c0.3,0,0.6,0,1,0c0.4,0.7,0.9,1.5,1.3,2.2c-0.4,1-1,2-2,3&#10;&#9;&#9;&#9;c-0.4,0-0.7,0-1.1-0.1L108.8,713.4z M383.2,726.3c0.8,0,1.7,0.1,2.5,0.2c1.1,1.5,2.4,2.9,3.7,4.2h-6.7&#10;&#9;&#9;&#9;C382.8,729.3,383,727.8,383.2,726.3z M1126.4,730.7c0.7-0.8,1.6-1.5,2.5-2.1c0.7,0.7,1.6,1.3,2.2,2.1H1126.4z M1399.4,717&#10;&#9;&#9;&#9;c0,0,0,0.1-0.1,0.1c-0.1,0-0.2,0-0.3,0C1399.2,717.1,1399.3,717,1399.4,717z M1385.2,719.3c1.7,1.1,3.9,1.4,6.2,1.6&#10;&#9;&#9;&#9;c-1.8,1.1-3.7,1.9-7,0.5c-0.3-0.5-0.5-1-0.6-1.5C1384.3,719.7,1384.8,719.5,1385.2,719.3z M1368.9,722c1.6-0.7,5-0.6,6.2,0.2&#10;&#9;&#9;&#9;c-2.3,0.7-4.6,1-6.8,1.1C1368.5,722.9,1368.7,722.4,1368.9,722z M1364.3,721.1c0.1,0,0.1,0,0.2,0c-0.3,1.5,0.2,2.1,1.8,1.8&#10;&#9;&#9;&#9;c0,0.2-0.1,0.3-0.1,0.5c-0.7,0-1.5,0-2.2,0C1364.1,722.6,1364.2,721.8,1364.3,721.1z" transform="matrix(0.8551710844039917, 0, 0, 0.8551710844039917, 101.38024902343727, 101.90027618408203)" style="fill: rgb(204, 204, 204); opacity: 1;"/></svg>